<svg xmlns="http://www.w3.org/2000/svg" xmlns:xlink="http://www.w3.org/1999/xlink" width="300" zoomAndPan="magnify" viewBox="0 0 224.87999 112.499997" height="150" preserveAspectRatio="xMidYMid meet" version="1.0"><defs><filter x="0%" y="0%" width="100%" height="100%" id="70532c92a4"><feColorMatrix values="0 0 0 0 1 0 0 0 0 1 0 0 0 0 1 0 0 0 1 0" color-interpolation-filters="sRGB"/></filter><g/><clipPath id="cec9806ff8"><path d="M 0.4375 0 L 224.324219 0 L 224.324219 112.003906 L 0.4375 112.003906 Z M 0.4375 0 " clip-rule="nonzero"/></clipPath><mask id="3e843623d7"><g filter="url(#70532c92a4)"><rect x="-22.487999" width="269.855988" fill="#000000" y="-11.25" height="134.999996" fill-opacity="0.1765"/></g></mask><clipPath id="0e830736b4"><path d="M 1.0625 1.199219 L 104.851562 1.199219 L 104.851562 77 L 1.0625 77 Z M 1.0625 1.199219 " clip-rule="nonzero"/></clipPath><clipPath id="65645e9985"><path d="M 1.0625 1.199219 L 96 1.199219 L 96 90.800781 L 1.0625 90.800781 Z M 1.0625 1.199219 " clip-rule="nonzero"/></clipPath><clipPath id="0d16f4e918"><path d="M 1.0625 1.199219 L 89 1.199219 L 89 85 L 1.0625 85 Z M 1.0625 1.199219 " clip-rule="nonzero"/></clipPath><clipPath id="9aefc388c1"><rect x="0" width="106" y="0" height="91"/></clipPath></defs><g clip-path="url(#cec9806ff8)"><path fill="#ffffff" d="M 0.4375 0 L 224.441406 0 L 224.441406 119.46875 L 0.4375 119.46875 Z M 0.4375 0 " fill-opacity="1" fill-rule="nonzero"/><path fill="#ffffff" d="M 0.4375 0 L 224.441406 0 L 224.441406 112.003906 L 0.4375 112.003906 Z M 0.4375 0 " fill-opacity="1" fill-rule="nonzero"/><path fill="#ffffff" d="M 0.4375 0 L 224.441406 0 L 224.441406 112.003906 L 0.4375 112.003906 Z M 0.4375 0 " fill-opacity="1" fill-rule="nonzero"/></g><g mask="url(#3e843623d7)"><g transform="matrix(1, 0, 0, 1, 49, 10)"><g clip-path="url(#9aefc388c1)"><g clip-path="url(#0e830736b4)"><path fill="#ed2b88" d="M 22.417969 37.734375 C 22.785156 38.160156 22.785156 38.808594 22.390625 39.207031 L 1.113281 60.371094 L 1.113281 55.140625 L 20.972656 37.652344 C 21.398438 37.285156 22.050781 37.339844 22.417969 37.734375 Z M 27.601562 57.402344 C 26.78125 57.289062 26.042969 57.855469 25.929688 58.675781 C 25.816406 59.492188 26.386719 60.226562 27.207031 60.339844 C 28.027344 60.453125 28.765625 59.890625 28.878906 59.070312 C 28.992188 58.25 28.425781 57.488281 27.601562 57.402344 Z M 33.097656 3.882812 C 33.664062 3.773438 34.003906 3.234375 33.921875 2.667969 L 33.636719 1.199219 L 31.371094 1.199219 L 31.878906 3.121094 C 32.023438 3.660156 32.5625 3.996094 33.097656 3.882812 Z M 35.167969 44.179688 C 34.742188 44.121094 34.34375 44.40625 34.261719 44.828125 L 29.359375 74.46875 C 29.191406 75.402344 29.871094 76.304688 30.832031 76.449219 C 31.796875 76.5625 32.675781 75.882812 32.757812 74.949219 L 35.875 45.082031 C 35.902344 44.628906 35.621094 44.234375 35.167969 44.179688 Z M 21.457031 11.257812 C 21.796875 10.808594 21.738281 10.1875 21.285156 9.820312 L 10.351562 1.199219 L 5.109375 1.199219 L 20.011719 11.457031 C 20.464844 11.796875 21.085938 11.683594 21.457031 11.257812 Z M 41.796875 23.269531 C 40.691406 23.015625 39.613281 23.722656 39.359375 24.824219 C 39.105469 25.925781 39.8125 27 40.917969 27.253906 C 42.023438 27.507812 43.097656 26.800781 43.355469 25.699219 C 43.582031 24.597656 42.902344 23.496094 41.796875 23.269531 Z M 101.800781 19.425781 L 48 23.578125 C 47.546875 23.609375 47.207031 24.003906 47.234375 24.425781 C 47.265625 24.878906 47.632812 25.21875 48.058594 25.21875 L 101.996094 24.992188 C 103.554688 24.992188 104.800781 23.636719 104.746094 22.082031 C 104.6875 20.527344 103.355469 19.3125 101.800781 19.425781 Z M 51.597656 43.445312 C 51.34375 43.078125 50.832031 42.964844 50.464844 43.21875 C 50.070312 43.472656 49.957031 43.953125 50.183594 44.347656 L 65.621094 71.332031 C 66.132812 72.179688 67.265625 72.464844 68.113281 71.925781 C 68.964844 71.390625 69.21875 70.257812 68.652344 69.441406 Z M 48.820312 6.796875 L 52.050781 1.199219 L 49.246094 1.199219 L 46.953125 5.835938 C 46.699219 6.34375 46.925781 6.964844 47.40625 7.21875 C 47.945312 7.472656 48.539062 7.304688 48.820312 6.796875 Z M 48.820312 6.796875 " fill-opacity="1" fill-rule="nonzero"/></g><g clip-path="url(#65645e9985)"><path fill="#e2b22d" d="M 44.0625 11.65625 C 44.148438 11.089844 44.65625 10.695312 45.222656 10.777344 C 45.789062 10.863281 46.1875 11.371094 46.101562 11.9375 C 46.015625 12.503906 45.507812 12.898438 44.941406 12.8125 C 44.375 12.730469 44.007812 12.21875 44.0625 11.65625 Z M 95.027344 1.199219 L 89.105469 1.199219 L 57.265625 14.621094 C 56.753906 14.847656 56.5 15.441406 56.726562 15.976562 C 56.953125 16.488281 57.519531 16.769531 58.058594 16.570312 L 93.753906 4.082031 C 94.914062 3.660156 95.480469 2.332031 95.027344 1.199219 Z M 32.929688 26.488281 C 32.363281 26.40625 31.851562 26.800781 31.765625 27.367188 C 31.683594 27.929688 32.078125 28.441406 32.644531 28.523438 C 33.210938 28.609375 33.722656 28.214844 33.808594 27.648438 C 33.890625 27.082031 33.496094 26.574219 32.929688 26.488281 Z M 40.691406 34.96875 C 40.578125 34.542969 40.152344 34.261719 39.699219 34.375 C 39.273438 34.457031 38.992188 34.882812 39.046875 35.335938 L 48.652344 88.289062 C 48.933594 89.8125 50.464844 90.800781 51.996094 90.464844 C 53.523438 90.125 54.515625 88.597656 54.121094 87.070312 Z M 83.894531 47.796875 C 83.328125 47.710938 82.816406 48.105469 82.734375 48.671875 C 82.648438 49.238281 83.042969 49.746094 83.609375 49.828125 C 84.179688 49.914062 84.6875 49.519531 84.773438 48.953125 C 84.859375 48.390625 84.460938 47.878906 83.894531 47.796875 Z M 69.898438 57.347656 C 69.332031 57.261719 68.824219 57.65625 68.738281 58.222656 C 68.652344 58.789062 69.050781 59.296875 69.617188 59.378906 C 70.183594 59.464844 70.691406 59.070312 70.777344 58.503906 C 70.863281 57.941406 70.464844 57.429688 69.898438 57.347656 Z M 16.101562 24.003906 L 1.113281 24.484375 L 1.113281 27.507812 L 16.1875 26.09375 C 16.753906 26.039062 17.175781 25.558594 17.148438 24.992188 C 17.148438 24.425781 16.667969 24.003906 16.101562 24.003906 Z M 88.851562 43.300781 C 89.785156 43.640625 90.835938 43.105469 91.148438 42.144531 C 91.457031 41.183594 90.921875 40.167969 89.957031 39.882812 L 60.605469 30.839844 C 60.183594 30.726562 59.730469 30.953125 59.585938 31.40625 C 59.445312 31.832031 59.671875 32.3125 60.097656 32.453125 Z M 88.851562 43.300781 " fill-opacity="1" fill-rule="nonzero"/></g><g clip-path="url(#0d16f4e918)"><path fill="#690ca2" d="M 27.347656 22.449219 L 1.113281 15.160156 L 1.113281 11.289062 L 27.859375 20.867188 C 28.28125 21.007812 28.507812 21.460938 28.367188 21.882812 C 28.226562 22.335938 27.773438 22.5625 27.347656 22.449219 Z M 26.042969 29.710938 C 25.902344 29.371094 25.507812 29.203125 25.167969 29.34375 L 1.113281 38.1875 L 1.113281 41.75 L 25.703125 30.585938 C 26.042969 30.445312 26.1875 30.050781 26.042969 29.710938 Z M 36.527344 19.3125 C 35.960938 19.226562 35.449219 19.625 35.367188 20.1875 C 35.28125 20.753906 35.675781 21.261719 36.242188 21.347656 C 36.808594 21.433594 37.320312 21.035156 37.40625 20.472656 C 37.488281 19.90625 37.09375 19.371094 36.527344 19.3125 Z M 33.015625 33.441406 C 32.617188 33.242188 32.136719 33.382812 31.910156 33.75 L 5.136719 80.488281 C 4.371094 81.84375 4.910156 83.566406 6.300781 84.304688 C 7.6875 85.039062 9.414062 84.472656 10.09375 83.089844 L 33.382812 34.542969 C 33.550781 34.148438 33.410156 33.667969 33.015625 33.441406 Z M 38.140625 14.453125 C 38.085938 14.90625 38.425781 15.300781 38.851562 15.355469 C 39.304688 15.414062 39.699219 15.101562 39.785156 14.679688 L 42.109375 1.199219 L 39.445312 1.199219 Z M 30.066406 13.179688 C 30.378906 12.984375 30.492188 12.558594 30.292969 12.21875 L 23.863281 1.199219 L 21.003906 1.199219 L 29.105469 12.984375 C 29.332031 13.292969 29.757812 13.378906 30.066406 13.179688 Z M 53.636719 56.46875 C 52.535156 56.328125 51.484375 57.09375 51.34375 58.222656 C 51.203125 59.324219 51.964844 60.371094 53.101562 60.511719 C 54.203125 60.652344 55.253906 59.890625 55.394531 58.757812 C 55.535156 57.65625 54.742188 56.640625 53.636719 56.46875 Z M 66.359375 1.199219 L 61.882812 1.199219 L 47.234375 15.667969 C 46.953125 15.949219 46.925781 16.402344 47.207031 16.714844 C 47.492188 17.023438 47.945312 17.050781 48.253906 16.769531 Z M 83.328125 16.742188 C 84.433594 16.882812 85.480469 16.121094 85.621094 14.988281 C 85.765625 13.886719 85 12.84375 83.867188 12.699219 C 82.761719 12.558594 81.714844 13.324219 81.570312 14.453125 C 81.429688 15.582031 82.195312 16.601562 83.328125 16.742188 Z M 61.9375 37.285156 C 61.855469 37.847656 62.25 38.359375 62.816406 38.441406 C 63.382812 38.527344 63.894531 38.132812 63.980469 37.566406 C 64.0625 37 63.667969 36.492188 63.101562 36.40625 C 62.535156 36.324219 62.023438 36.71875 61.9375 37.285156 Z M 87.351562 60.285156 L 49.191406 33.074219 C 48.878906 32.847656 48.425781 32.902344 48.199219 33.214844 C 47.972656 33.527344 48 33.949219 48.3125 34.203125 L 84.375 64.128906 C 85.425781 65.003906 87.011719 64.777344 87.832031 63.730469 C 88.652344 62.660156 88.457031 61.074219 87.351562 60.285156 Z M 87.351562 60.285156 " fill-opacity="1" fill-rule="nonzero"/></g></g></g></g><path stroke-linecap="butt" transform="matrix(0.517657, 0, 0, 0.517657, 38.33371, 22.922427)" fill="none" stroke-linejoin="miter" d="M 40.58678 53.409639 C 37.606104 53.409639 34.897084 52.753136 32.467267 51.432583 C 30.037449 50.11203 28.105669 48.172704 26.66438 45.614604 C 25.238183 43.041413 24.521311 39.970184 24.521311 36.393372 C 24.521311 33.66926 24.989164 30.635761 25.932416 27.292876 C 27.984933 20.154344 31.214628 15.121151 35.606409 12.178205 C 40.005737 9.220166 44.699359 7.748693 49.694822 7.748693 C 54.24507 7.748693 58.350103 9.393725 62.017468 12.69888 L 64.024708 10.752008 C 65.133972 9.816302 66.092316 9.17489 66.89974 8.827773 C 67.707164 8.465565 68.64287 8.28446 69.714404 8.28446 C 70.876491 8.28446 71.812197 8.563663 72.521523 9.122068 C 73.238394 9.672927 73.600603 10.419983 73.600603 11.355689 C 73.600603 11.717898 73.532689 12.140475 73.389315 12.630966 L 70.989681 21.067412 C 70.53692 22.493609 70.008699 23.504776 69.397472 24.093365 C 68.801336 24.666862 67.986367 24.953611 66.967654 24.953611 C 65.89612 24.953611 64.952868 24.6895 64.122806 24.153733 C 63.292744 23.61042 62.349492 22.64453 61.277958 21.263609 C 59.851761 19.384651 58.58403 18.064098 57.489858 17.294404 C 56.395685 16.509618 55.210961 16.117225 53.928138 16.117225 C 51.905805 16.117225 49.996663 17.135938 48.185619 19.173362 C 46.382121 21.195695 44.81255 24.57631 43.484451 29.300116 C 42.631751 32.386437 42.209174 35.042635 42.209174 37.261164 C 42.209174 39.638159 42.661935 41.441657 43.582549 42.671658 C 44.495617 43.894112 45.77844 44.50534 47.423471 44.50534 C 48.849669 44.50534 49.951387 44.165769 50.736173 43.50172 C 51.520958 42.830124 52.139732 41.660492 52.584947 40.007914 L 53.045254 38.340244 C 53.271634 37.449814 53.384825 36.846133 53.384825 36.5292 C 53.384825 35.993433 53.256542 35.616132 53.007524 35.397298 C 52.766051 35.170917 52.358566 34.921899 51.769977 34.665334 L 49.430712 33.78245 C 48.404454 33.390057 47.891324 32.650548 47.891324 31.571467 C 47.891324 31.269627 47.913963 31.028154 47.959239 30.839504 C 48.132797 30.25846 48.457276 29.84343 48.925129 29.579319 C 49.392982 29.307662 50.117399 29.171834 51.098382 29.171834 L 71.31416 29.239748 C 72.793179 29.239748 73.532689 29.707601 73.532689 30.643307 C 73.532689 30.816866 73.487413 31.080976 73.389315 31.443185 C 73.215756 32.122327 72.929008 32.658094 72.521523 33.065579 C 72.121584 33.450426 71.54054 33.850364 70.793485 34.257849 L 69.042809 35.269015 C 68.597594 35.533126 68.258023 35.782145 68.031643 36.038709 C 67.812808 36.272636 67.654342 36.574476 67.571336 36.936685 L 64.024708 49.319698 C 63.579493 50.791172 63.07391 51.772154 62.523051 52.262645 C 61.964645 52.753136 61.285504 53.002154 60.47808 53.002154 L 57.663416 53.002154 C 56.599428 53.002154 55.716544 52.775774 55.02231 52.330559 C 54.335623 51.885344 53.769671 51.010006 53.31691 49.712091 L 52.652861 47.787857 C 49.438258 51.538227 45.416231 53.409639 40.58678 53.409639 Z M 104.056326 7.416668 C 109.678108 7.416668 114.06989 8.752313 117.231671 11.408511 C 120.400998 14.057163 121.985661 17.882993 121.985661 22.878456 C 121.985661 25.247905 121.630999 27.790913 120.921673 30.515025 C 119.586028 35.502942 117.503327 39.743803 114.696209 43.230063 C 111.881545 46.701231 108.531114 49.33479 104.644915 51.123196 C 100.766263 52.904056 96.548039 53.802032 91.997791 53.802032 C 86.413739 53.802032 82.044596 52.473933 78.875269 49.832828 C 75.713488 47.169084 74.13637 43.343253 74.13637 38.340244 C 74.13637 36.061347 74.506125 33.450426 75.260727 30.515025 C 76.558641 25.557292 78.603612 21.346615 81.388092 17.898085 C 84.180118 14.434464 87.500366 11.823542 91.35638 10.06532 C 95.227487 8.299552 99.460802 7.416668 104.056326 7.416668 Z M 102.848963 13.974157 C 101.505772 13.974157 100.305956 14.509924 99.234421 15.589004 C 98.170433 16.660539 97.106445 18.411214 96.050002 20.841032 C 95.001106 23.263303 93.87675 26.643919 92.669387 30.967786 C 90.888527 37.223434 90.005643 41.532209 90.005643 43.894112 C 90.005643 45.28258 90.247116 46.2862 90.737607 46.920065 C 91.228098 47.538838 92.005337 47.855771 93.076872 47.855771 C 94.412517 47.855771 95.619879 47.304912 96.683868 46.218286 C 97.755402 45.116567 98.796752 43.365891 99.823011 40.958712 C 100.856815 38.543987 102.003809 35.216193 103.256448 30.967786 C 104.992032 24.817783 105.852278 20.486369 105.852278 17.996184 C 105.852278 16.569986 105.610805 15.543728 105.120314 14.924955 C 104.629823 14.291089 103.875222 13.974157 102.848963 13.974157 Z M 169.510474 8.156178 C 171.389432 8.156178 172.951457 8.759859 174.204096 9.967222 C 175.456735 11.167039 176.083054 12.789432 176.083054 14.841949 C 176.083054 17.158576 175.388821 19.037534 174.0079 20.463731 C 172.626979 21.889928 170.974401 22.599254 169.057713 22.599254 C 167.805074 22.599254 166.73354 22.380419 165.835564 21.935204 C 164.945134 21.482443 164.092434 20.773118 163.28501 19.792135 L 157.534945 24.61404 L 164.02452 43.833744 C 164.424459 44.943009 164.862128 45.833439 165.329981 46.51258 C 165.797834 47.17663 166.371331 47.848225 167.042926 48.519821 C 167.533417 49.010312 167.880534 49.402705 168.076731 49.696999 C 168.280473 49.983748 168.386117 50.323319 168.386117 50.730803 C 168.386117 51.440129 168.061639 51.990988 167.405135 52.398473 C 166.763724 52.798412 165.631821 53.002154 164.02452 53.002154 L 155.263594 53.002154 C 153.07525 53.002154 151.452856 52.519209 150.411506 51.560865 C 149.362609 50.602521 148.502364 49.010312 147.823222 46.776691 L 144.472791 35.533126 L 142.548557 37.132882 L 140.322482 45.109021 C 140.148923 45.682518 140.065917 46.240924 140.065917 46.776691 C 140.065917 47.304912 140.141377 47.757673 140.292298 48.112336 C 140.45831 48.474545 140.692236 48.851845 140.994077 49.25933 C 141.401562 49.832828 141.597758 50.300681 141.597758 50.662889 C 141.597758 50.753442 141.560028 50.972276 141.469476 51.334485 C 141.295918 51.953258 140.888433 52.390927 140.262113 52.639946 C 139.635794 52.881418 138.700088 53.002154 137.447449 53.002154 L 121.729097 53.002154 C 120.793391 53.002154 120.068973 52.851234 119.555844 52.541847 C 119.042715 52.224915 118.78615 51.802338 118.78615 51.266571 C 118.78615 50.994914 118.854064 50.700619 118.982347 50.383687 C 119.155905 49.893196 119.442654 49.515895 119.850139 49.25933 C 120.250078 48.987674 120.499096 48.829207 120.582102 48.783931 C 121.298974 48.338716 121.887563 47.878409 122.332778 47.410556 C 122.777993 46.942703 123.155294 46.173009 123.457135 45.109021 L 131.629471 16.245508 C 131.803029 15.664464 131.893581 15.113605 131.893581 14.577838 C 131.893581 14.087347 131.818121 13.672316 131.667201 13.332745 C 131.508734 13.000721 131.297446 12.608328 131.025789 12.163113 C 130.62585 11.582069 130.422108 11.114216 130.422108 10.752008 C 130.422108 10.623725 130.467384 10.374707 130.55039 10.020044 C 130.739041 9.439001 131.131433 9.031516 131.727569 8.790043 C 132.33125 8.541025 133.251864 8.420288 134.504503 8.420288 L 150.245493 8.420288 C 151.181199 8.420288 151.905617 8.563663 152.418746 8.857957 C 152.931875 9.144706 153.18844 9.552191 153.18844 10.080412 C 153.18844 10.314339 153.120526 10.608633 152.992243 10.963296 C 152.848869 11.272683 152.652673 11.551885 152.403654 11.800904 C 152.162182 12.042376 151.943347 12.215935 151.732059 12.336671 C 151.535862 12.449861 151.392488 12.54796 151.309482 12.630966 C 150.600156 13.038451 150.019113 13.483666 149.573898 13.974157 C 149.128683 14.464648 148.743836 15.219249 148.434449 16.245508 L 145.619785 26.228888 L 163.352924 10.902928 C 164.515011 9.921946 165.571453 9.220166 166.507159 8.790043 C 167.442865 8.367466 168.446485 8.156178 169.510474 8.156178 Z M 214.107432 17.45287 C 214.94504 14.374096 216.129764 12.049922 217.669152 10.495443 C 219.216085 8.933418 221.351608 8.156178 224.07572 8.156178 C 226.218788 8.156178 227.931734 8.835319 229.222103 10.201148 C 230.520018 11.559431 231.168975 13.242193 231.168975 15.249433 C 231.168975 15.913483 231.055785 16.690723 230.836951 17.588699 C 230.346459 19.543117 229.478668 20.961768 228.226029 21.837106 C 226.97339 22.704898 225.607561 23.142567 224.136088 23.142567 C 223.37394 23.142567 222.694799 23.089745 222.098663 22.976554 C 221.494982 22.87091 220.929031 22.71999 220.393264 22.538886 L 216.439151 37.064967 C 215.012954 42.384909 212.628413 46.43712 209.285527 49.2216 C 205.935096 52.013626 201.384848 53.409639 195.619691 53.409639 C 190.360118 53.409639 186.262631 52.406019 183.32723 50.398779 C 180.406922 48.383992 178.950541 45.259941 178.950541 41.01908 C 178.950541 38.959018 179.312749 36.702759 180.029621 34.257849 L 185.10809 16.245508 C 185.289194 15.664464 185.372201 15.113605 185.372201 14.577838 C 185.372201 14.042071 185.29674 13.611948 185.14582 13.272377 C 184.9949 12.932806 184.776065 12.540414 184.504409 12.095199 C 184.10447 11.514155 183.900727 11.046302 183.900727 10.691639 C 183.900727 10.510535 183.95355 10.291701 184.051648 10.020044 C 184.225206 9.439001 184.625145 9.031516 185.243918 8.790043 C 185.877784 8.541025 186.790852 8.420288 187.990668 8.420288 L 203.724113 8.420288 C 205.640801 8.420288 206.599145 9.001332 206.599145 10.163418 C 206.599145 10.427529 206.584053 10.653909 206.538777 10.835014 C 206.402949 11.227407 206.214298 11.551885 205.96528 11.800904 C 205.716261 12.042376 205.346507 12.314033 204.856015 12.630966 C 204.14669 13.038451 203.565647 13.483666 203.120432 13.974157 C 202.675217 14.464648 202.29037 15.219249 201.980983 16.245508 L 196.163004 36.740489 C 195.755519 38.249692 195.551777 39.547607 195.551777 40.611595 C 195.551777 43.607364 197.159079 45.109021 200.373682 45.109021 C 202.335646 45.109021 203.973132 44.46761 205.293684 43.192333 C 206.614237 41.917056 207.715956 39.743803 208.613932 36.672575 Z M 264.303534 35.729323 C 265.556173 35.729323 266.499425 35.978341 267.148382 36.49147 C 267.789794 37.004599 268.106726 37.729017 268.106726 38.664723 C 268.106726 39.072208 268.046358 39.517423 267.91053 40.007914 L 265.707093 47.855771 C 265.12605 49.772459 264.31108 51.108104 263.254638 51.870252 C 262.205742 52.624854 260.658808 53.002154 258.613838 53.002154 L 227.154494 53.002154 C 226.218788 53.002154 225.494371 52.851234 224.981242 52.541847 C 224.468113 52.224915 224.211548 51.802338 224.211548 51.266571 C 224.211548 50.994914 224.279462 50.700619 224.407744 50.383687 C 224.536027 50.029024 224.762407 49.727183 225.07934 49.485711 C 225.381181 49.236692 225.713205 49.002766 226.075414 48.783931 C 226.792286 48.338716 227.380875 47.878409 227.82609 47.410556 C 228.271305 46.942703 228.648606 46.173009 228.950446 45.109021 L 237.122782 16.245508 C 237.296341 15.664464 237.386893 15.113605 237.386893 14.577838 C 237.386893 14.087347 237.311433 13.672316 237.152966 13.332745 C 237.002046 13.000721 236.790758 12.608328 236.519101 12.163113 C 236.111616 11.582069 235.91542 11.114216 235.91542 10.752008 C 235.91542 10.623725 235.960696 10.374707 236.043702 10.020044 C 236.232352 9.439001 236.624745 9.031516 237.220881 8.790043 C 237.817016 8.541025 238.745176 8.420288 239.997815 8.420288 L 255.738805 8.420288 C 256.674511 8.420288 257.398929 8.563663 257.912058 8.857957 C 258.425187 9.144706 258.681752 9.552191 258.681752 10.080412 C 258.681752 10.314339 258.613838 10.608633 258.485555 10.963296 C 258.342181 11.272683 258.145985 11.551885 257.896966 11.800904 C 257.655494 12.042376 257.429113 12.215935 257.225371 12.336671 C 257.029174 12.449861 256.8858 12.54796 256.802794 12.630966 C 256.093468 13.038451 255.512425 13.483666 255.06721 13.974157 C 254.621995 14.464648 254.237148 15.219249 253.920215 16.245508 L 245.295118 46.580494 L 249.445427 46.580494 C 250.471686 46.580494 251.347024 46.39939 252.078987 46.037181 C 252.818497 45.674972 253.588191 45.010923 254.395614 44.029941 L 259.00623 38.536441 C 259.85893 37.555459 260.6739 36.846133 261.458686 36.393372 C 262.243472 35.948157 263.186724 35.729323 264.303534 35.729323 Z M 264.303534 35.729323 " stroke="#ff52b4" stroke-width="2.510606" stroke-opacity="1" stroke-miterlimit="4"/><g fill="#1ed5c3" fill-opacity="1"><g transform="translate(57.93137, 80.241144)"><g><path d="M 32.605469 -30.824219 C 32.425781 -32.609375 29.890625 -33.257812 27.640625 -33.03125 C 25.273438 -32.792969 22.488281 -31.652344 20.710938 -29.828125 C 16.207031 -30.199219 10.363281 -31.804688 6.210938 -31.386719 C 1.128906 -30.878906 -1.601562 -28.015625 -1.164062 -23.671875 C -0.808594 -20.140625 1.886719 -18.257812 5.496094 -18.617188 C 6.894531 -18.757812 8.371094 -19.261719 9.667969 -20.015625 C 9.960938 -20.203125 10.089844 -20.492188 10.058594 -20.800781 C 10.027344 -21.113281 9.742188 -21.59375 9.199219 -21.539062 C 9.046875 -21.523438 8.933594 -21.472656 8.820312 -21.421875 C 7.746094 -20.804688 6.535156 -20.367188 5.371094 -20.253906 C 2.695312 -19.984375 0.777344 -21.121094 0.464844 -23.835938 C 0.132812 -27.132812 2.304688 -29.308594 6.300781 -29.710938 C 10.6875 -30.152344 15.96875 -28.683594 19.457031 -28.289062 C 19.257812 -27.917969 19.023438 -27.542969 18.863281 -27.171875 C 17.515625 -24.214844 16.585938 -19.8125 15.929688 -16.570312 C 14.03125 -8.1875 13.390625 -0.523438 6.785156 0.0625 C 3.953125 0.347656 1.496094 -1.484375 1.164062 -4.78125 C 0.8125 -8.3125 3.839844 -11.710938 7.253906 -12.054688 C 7.71875 -12.101562 8.035156 -12.484375 7.988281 -12.949219 C 7.941406 -13.417969 7.554688 -13.730469 7.089844 -13.683594 C 2.820312 -13.253906 -0.925781 -9.195312 -0.464844 -4.617188 C -0.0625 -0.621094 2.992188 2.089844 6.949219 1.691406 C 13.828125 1.117188 15.253906 -4.589844 17.535156 -16.222656 C 18.195312 -19.386719 19.089844 -23.746094 20.339844 -26.496094 C 20.636719 -27.078125 20.972656 -27.621094 21.390625 -28.132812 C 23.882812 -27.910156 26.320312 -27.84375 28.222656 -28.035156 C 30.9375 -28.308594 32.703125 -29.074219 32.605469 -30.824219 Z M 28.058594 -29.664062 C 26.777344 -29.535156 24.972656 -29.550781 23.078125 -29.671875 C 24.324219 -30.542969 26.253906 -31.246094 27.765625 -31.398438 C 28.890625 -31.511719 30.875 -31.277344 30.933594 -30.695312 C 30.988281 -30.152344 29.878906 -29.847656 28.058594 -29.664062 Z M 28.058594 -29.664062 "/></g></g></g><g fill="#1ed5c3" fill-opacity="1"><g transform="translate(81.945653, 77.82823)"><g><path d="M 15.09375 -10.84375 C 14.976562 -10.871094 14.855469 -10.898438 14.738281 -10.886719 C 14.429688 -10.855469 14.175781 -10.632812 14.050781 -10.308594 C 12.34375 -5.082031 11.085938 -2.761719 9.1875 -2.570312 C 8.332031 -2.484375 7.957031 -3.113281 7.859375 -4.082031 C 7.832031 -4.746094 7.84375 -5.414062 7.992188 -6.25 C 8.128906 -7.242188 9.433594 -12.980469 9.808594 -14.308594 C 9.917969 -14.792969 9.671875 -15.277344 9.230469 -15.386719 C 8.789062 -15.5 8.269531 -15.605469 7.710938 -15.707031 C 6.546875 -15.980469 5.183594 -16.273438 4.042969 -16.707031 C 4.355469 -18.269531 4.476562 -18.632812 4.414062 -19.253906 C 4.257812 -20.804688 3.304688 -21.730469 1.90625 -21.589844 C 0.664062 -21.464844 -0.367188 -20.421875 -0.207031 -18.828125 C -0.0625 -17.394531 0.855469 -16.46875 2.097656 -15.769531 L 1.75 -14.558594 L -0.675781 -7.496094 C -0.703125 -7.375 -0.730469 -7.253906 -0.71875 -7.140625 C -0.6875 -6.828125 -0.464844 -6.578125 -0.175781 -6.449219 C -0.0585938 -6.421875 0.0625 -6.394531 0.21875 -6.410156 C 0.488281 -6.4375 0.746094 -6.621094 0.871094 -6.945312 C 3.292969 -14.046875 3.507812 -14.617188 3.617188 -15.097656 C 4.511719 -14.757812 4.957031 -14.644531 8 -13.972656 C 7.738281 -13.082031 6.550781 -7.75 6.363281 -6.480469 C 6.191406 -5.480469 6.152344 -4.695312 6.230469 -3.917969 C 6.421875 -2.015625 7.488281 -0.753906 9.3125 -0.9375 L 9.351562 -0.941406 C 11.988281 -1.203125 13.691406 -3.765625 15.632812 -9.800781 C 15.660156 -9.921875 15.6875 -10.039062 15.675781 -10.15625 C 15.644531 -10.46875 15.421875 -10.71875 15.09375 -10.84375 Z M 2.78125 -19.128906 C 2.820312 -18.742188 2.65625 -18.019531 2.515625 -17.457031 C 1.890625 -17.863281 1.46875 -18.527344 1.40625 -19.148438 C 1.363281 -19.574219 1.566406 -19.910156 2.070312 -19.960938 C 2.378906 -19.992188 2.714844 -19.789062 2.78125 -19.128906 Z M 2.78125 -19.128906 "/></g></g></g><g fill="#1ed5c3" fill-opacity="1"><g transform="translate(96.22232, 76.393736)"><g><path d="M 16.453125 -10.980469 C 16.332031 -11.007812 16.214844 -11.035156 16.097656 -11.023438 C 15.785156 -10.992188 15.535156 -10.769531 15.410156 -10.445312 L 15.382812 -10.324219 C 14.390625 -7.324219 12.949219 -2.945312 10.542969 -2.707031 C 9.730469 -2.625 9.332031 -3.054688 9.214844 -4.21875 C 9.046875 -5.925781 9.988281 -9.429688 10.988281 -13.488281 L 12.40625 -18.882812 C 12.554688 -19.367188 12.179688 -19.957031 11.5625 -19.894531 C 11.210938 -19.859375 10.921875 -19.632812 10.835938 -19.3125 C 10.691406 -18.789062 10.519531 -18.183594 10.351562 -17.5 C 9.511719 -18.824219 8.242188 -19.363281 6.613281 -19.199219 C 1.957031 -18.734375 -1.046875 -9.261719 -0.539062 -4.179688 C -0.304688 -1.851562 0.890625 -0.0898438 3.066406 -0.308594 C 4.734375 -0.476562 6.253906 -1.726562 7.585938 -4.054688 C 7.777344 -2.152344 8.847656 -0.890625 10.707031 -1.074219 C 14.199219 -1.425781 15.816406 -6.410156 16.960938 -9.816406 L 16.988281 -9.9375 C 17.015625 -10.058594 17.042969 -10.175781 17.03125 -10.292969 C 17 -10.605469 16.78125 -10.855469 16.453125 -10.980469 Z M 2.863281 -1.933594 C 1.699219 -1.816406 1.234375 -2.90625 1.066406 -4.613281 C 0.757812 -8.460938 3.214844 -17.136719 6.777344 -17.570312 C 8.175781 -17.710938 9.289062 -16.765625 9.546875 -14.988281 L 8.863281 -12.414062 C 7.710938 -8.300781 6.003906 -2.25 2.863281 -1.933594 Z M 2.863281 -1.933594 "/></g></g></g><g fill="#1ed5c3" fill-opacity="1"><g transform="translate(111.856821, 74.822808)"><g><path d="M 17.5 -11.085938 C 17.378906 -11.113281 17.261719 -11.140625 17.183594 -11.132812 C 16.871094 -11.101562 16.582031 -10.875 16.453125 -10.589844 C 15.03125 -6.410156 13.492188 -3 10.699219 -2.722656 C 9.808594 -2.632812 9.386719 -3.292969 9.292969 -4.226562 C 9.191406 -5.234375 9.660156 -7.59375 10.0625 -9.4375 C 10.304688 -10.558594 13.59375 -24.214844 13.871094 -25.378906 C 13.984375 -25.820312 13.644531 -26.453125 12.984375 -26.386719 C 12.675781 -26.355469 12.382812 -26.128906 12.300781 -25.808594 L 10.839844 -19.664062 L 10.304688 -17.574219 C 9.5625 -18.714844 8.359375 -19.375 6.613281 -19.199219 C 1.917969 -18.730469 -1.046875 -9.261719 -0.539062 -4.179688 C -0.304688 -1.851562 0.890625 -0.0898438 3.066406 -0.308594 C 5.042969 -0.507812 6.484375 -2.140625 7.648438 -4.21875 C 7.867188 -2.042969 9.039062 -0.910156 10.863281 -1.089844 C 14.433594 -1.449219 16.273438 -4.964844 18.035156 -10.042969 C 18.0625 -10.164062 18.089844 -10.28125 18.078125 -10.398438 C 18.046875 -10.710938 17.828125 -10.960938 17.5 -11.085938 Z M 2.863281 -1.933594 C 1.699219 -1.816406 1.234375 -2.90625 1.066406 -4.613281 C 0.757812 -8.460938 3.21875 -17.097656 6.777344 -17.570312 C 8.289062 -17.722656 9.289062 -16.765625 9.546875 -14.988281 C 9.554688 -14.910156 9.5625 -14.832031 9.535156 -14.714844 C 9.324219 -14.066406 9.132812 -13.261719 8.863281 -12.414062 C 7.710938 -8.300781 6.003906 -2.25 2.863281 -1.933594 Z M 2.863281 -1.933594 "/></g></g></g><g fill="#1ed5c3" fill-opacity="1"><g transform="translate(128.538793, 73.146632)"><g><path d="M 13.117188 -10.644531 C 12.675781 -10.757812 12.226562 -10.515625 12.074219 -10.109375 C 10.402344 -4.886719 8.148438 -2.386719 4.957031 -2.144531 C 2.621094 -1.988281 1.242188 -3.222656 1.097656 -5.441406 C 1.054688 -6.257812 1.097656 -7.007812 1.269531 -8.042969 C 5.46875 -9.523438 11 -12.585938 10.589844 -16.699219 C 10.402344 -18.5625 8.941406 -19.433594 7 -19.238281 C 2.425781 -18.78125 -0.800781 -10.304688 -0.535156 -5.316406 C -0.292969 -2.125 1.863281 -0.1875 5.082031 -0.511719 C 9 -0.90625 11.691406 -3.761719 13.652344 -9.601562 C 13.679688 -9.722656 13.710938 -9.804688 13.699219 -9.917969 C 13.667969 -10.230469 13.441406 -10.519531 13.117188 -10.644531 Z M 1.703125 -9.96875 C 2.644531 -13.082031 4.488281 -17.339844 7.164062 -17.609375 C 8.019531 -17.695312 8.851562 -17.585938 8.957031 -16.535156 C 9.246094 -13.664062 4.820312 -11.300781 1.703125 -9.96875 Z M 1.703125 -9.96875 "/></g></g></g><g fill="#1ed5c3" fill-opacity="1"><g transform="translate(140.836897, 71.91094)"><g><path d="M 15.09375 -10.84375 C 14.976562 -10.871094 14.855469 -10.898438 14.738281 -10.886719 C 14.429688 -10.855469 14.175781 -10.632812 14.050781 -10.308594 C 12.34375 -5.082031 11.085938 -2.761719 9.1875 -2.570312 C 8.332031 -2.484375 7.957031 -3.113281 7.859375 -4.082031 C 7.832031 -4.746094 7.84375 -5.414062 7.992188 -6.25 C 8.128906 -7.242188 9.433594 -12.980469 9.808594 -14.308594 C 9.917969 -14.792969 9.671875 -15.277344 9.230469 -15.386719 C 8.789062 -15.5 8.269531 -15.605469 7.710938 -15.707031 C 6.546875 -15.980469 5.183594 -16.273438 4.042969 -16.707031 C 4.355469 -18.269531 4.476562 -18.632812 4.414062 -19.253906 C 4.257812 -20.804688 3.304688 -21.730469 1.90625 -21.589844 C 0.664062 -21.464844 -0.367188 -20.421875 -0.207031 -18.828125 C -0.0625 -17.394531 0.855469 -16.46875 2.097656 -15.769531 L 1.75 -14.558594 L -0.675781 -7.496094 C -0.703125 -7.375 -0.730469 -7.253906 -0.71875 -7.140625 C -0.6875 -6.828125 -0.464844 -6.578125 -0.175781 -6.449219 C -0.0585938 -6.421875 0.0625 -6.394531 0.21875 -6.410156 C 0.488281 -6.4375 0.746094 -6.621094 0.871094 -6.945312 C 3.292969 -14.046875 3.507812 -14.617188 3.617188 -15.097656 C 4.511719 -14.757812 4.957031 -14.644531 8 -13.972656 C 7.738281 -13.082031 6.550781 -7.75 6.363281 -6.480469 C 6.191406 -5.480469 6.152344 -4.695312 6.230469 -3.917969 C 6.421875 -2.015625 7.488281 -0.753906 9.3125 -0.9375 L 9.351562 -0.941406 C 11.988281 -1.203125 13.691406 -3.765625 15.632812 -9.800781 C 15.660156 -9.921875 15.6875 -10.039062 15.675781 -10.15625 C 15.644531 -10.46875 15.421875 -10.71875 15.09375 -10.84375 Z M 2.78125 -19.128906 C 2.820312 -18.742188 2.65625 -18.019531 2.515625 -17.457031 C 1.890625 -17.863281 1.46875 -18.527344 1.40625 -19.148438 C 1.363281 -19.574219 1.566406 -19.910156 2.070312 -19.960938 C 2.378906 -19.992188 2.714844 -19.789062 2.78125 -19.128906 Z M 2.78125 -19.128906 "/></g></g></g><g fill="#1ed5c3" fill-opacity="1"><g transform="translate(155.113568, 70.476445)"><g><path d="M 12.113281 -8.152344 C 11.808594 -10.789062 10.625 -12.039062 8.234375 -15.5625 C 9.300781 -17.042969 10.097656 -18.847656 9.941406 -20.398438 C 9.75 -21.515625 9.003906 -22.339844 7.878906 -22.226562 C 6.285156 -22.066406 5.214844 -20.238281 5.417969 -18.21875 C 5.507812 -17.328125 5.828125 -16.496094 6.257812 -15.714844 C 5.839844 -15.203125 5.496094 -14.738281 5.082031 -14.148438 C 4.984375 -13.980469 4.925781 -13.78125 4.941406 -13.625 C 4.964844 -13.390625 5.070312 -13.128906 5.277344 -12.992188 C 5.449219 -12.851562 5.6875 -12.835938 5.878906 -12.855469 C 6.113281 -12.878906 6.332031 -13.019531 6.46875 -13.230469 C 6.671875 -13.5625 6.910156 -13.902344 7.15625 -14.199219 C 9.574219 -10.796875 10.269531 -9.730469 10.480469 -8.027344 C 10.726562 -4.800781 8.683594 -2.519531 5.539062 -2.203125 C 3.289062 -1.976562 1.144531 -3.445312 0.90625 -5.8125 C 0.824219 -8.195312 2.039062 -10.121094 4.171875 -10.335938 C 5.183594 -10.4375 6.25 -9.5625 6.460938 -8.25 C 6.507812 -7.785156 6.890625 -7.472656 7.355469 -7.519531 C 7.820312 -7.566406 8.136719 -7.949219 8.089844 -8.414062 C 7.796875 -10.542969 5.988281 -12.164062 3.972656 -11.960938 C 0.867188 -11.648438 -0.84375 -9.164062 -0.722656 -5.648438 C -0.410156 -2.507812 2.484375 -0.25 5.703125 -0.574219 C 9.621094 -0.964844 12.457031 -3.957031 12.113281 -8.152344 Z M 7.363281 -17.199219 C 7.203125 -17.613281 7.089844 -17.996094 7.046875 -18.421875 C 6.992188 -18.964844 7.035156 -19.675781 7.457031 -20.1875 C 7.804688 -20.613281 8.21875 -20.773438 8.273438 -20.230469 C 8.359375 -19.375 7.898438 -18.117188 7.363281 -17.199219 Z M 7.363281 -17.199219 "/></g></g></g></svg>