<svg xmlns="http://www.w3.org/2000/svg" xmlns:xlink="http://www.w3.org/1999/xlink" width="500" zoomAndPan="magnify" viewBox="0 0 375 374.999991" height="500" preserveAspectRatio="xMidYMid meet" version="1.0"><defs><clipPath id="68e99a1da4"><path d="M 69 37.5 L 318 37.5 L 318 305 L 69 305 Z M 69 37.5 " clip-rule="nonzero"/></clipPath><clipPath id="2d7a2312bd"><path d="M 18.566406 231 L 368.382812 231 L 368.382812 323.964844 L 18.566406 323.964844 Z M 18.566406 231 " clip-rule="nonzero"/></clipPath></defs><path fill="#f9e30c" d="M 291.351562 131.042969 C 291.351562 131.121094 291.339844 131.210938 291.339844 131.289062 C 290.421875 155.089844 284.65625 178.425781 274.085938 199.886719 C 259.015625 230.519531 234.695312 255.144531 205.855469 270.070312 C 203.1875 271.457031 200.464844 272.785156 197.683594 274.050781 C 196.289062 274.6875 194.882812 275.296875 193.480469 275.894531 C 192.0625 275.296875 190.660156 274.6875 189.265625 274.050781 C 186.484375 272.785156 183.761719 271.457031 181.089844 270.070312 C 152.25 255.144531 127.929688 230.519531 112.863281 199.886719 C 102.296875 178.425781 96.527344 155.089844 95.605469 131.289062 C 95.605469 131.210938 95.597656 131.121094 95.597656 131.042969 C 95.566406 130.140625 95.535156 129.253906 95.519531 128.339844 C 96.039062 128.242188 96.554688 128.125 97.078125 127.996094 C 103.074219 126.511719 108.734375 123.550781 113.058594 119.203125 C 118.460938 113.777344 121.558594 106.917969 123.023438 99.519531 C 123.199219 98.640625 123.351562 97.75 123.480469 96.847656 C 123.960938 96.453125 124.457031 96.070312 124.953125 95.671875 C 125.4375 95.304688 125.921875 94.929688 126.40625 94.5625 C 130.117188 91.71875 133.972656 89.078125 138.089844 86.671875 C 148.917969 80.324219 160.34375 75.175781 172.117188 71.316406 C 176.304688 69.9375 180.546875 68.710938 184.839844 67.632812 C 187.699219 66.910156 190.582031 66.277344 193.480469 65.710938 C 196.367188 66.277344 199.246094 66.910156 202.105469 67.632812 C 206.402344 68.710938 210.648438 69.9375 214.832031 71.316406 C 226.605469 75.175781 238.03125 80.324219 248.855469 86.671875 C 252.96875 89.078125 256.832031 91.71875 260.539062 94.5625 C 261.035156 94.929688 261.53125 95.3125 262.015625 95.6875 C 262.511719 96.074219 262.984375 96.460938 263.46875 96.847656 C 263.597656 97.75 263.746094 98.640625 263.925781 99.519531 C 265.386719 106.917969 268.484375 113.777344 273.886719 119.203125 C 278.210938 123.550781 283.871094 126.511719 289.867188 127.996094 C 290.390625 128.125 290.90625 128.242188 291.429688 128.339844 C 291.410156 129.253906 291.382812 130.140625 291.351562 131.042969 M 293.933594 109.117188 C 285.691406 101.402344 279.835938 89.679688 278.722656 77.683594 L 278.722656 77.671875 C 273.167969 74.070312 267.496094 70.683594 261.917969 67.421875 C 248.214844 59.457031 233.765625 53 218.886719 48.167969 C 210.496094 45.449219 202.027344 43.328125 193.480469 41.726562 C 184.929688 43.328125 176.449219 45.449219 168.0625 48.167969 C 153.179688 53 138.734375 59.457031 125.03125 67.421875 C 119.453125 70.683594 113.78125 74.070312 108.210938 77.671875 L 108.210938 77.683594 C 107.113281 89.679688 101.253906 101.402344 93.015625 109.117188 C 86.910156 114.828125 79.390625 118.675781 71.476562 120.292969 C 72.335938 130.777344 73.886719 141.230469 76.023438 151.644531 C 84.847656 194.703125 105.707031 233.984375 136.554688 262.882812 C 151.160156 276.578125 167.734375 287.824219 185.433594 296.21875 C 188.097656 297.476562 190.777344 298.644531 193.480469 299.730469 C 196.167969 298.644531 198.859375 297.476562 201.511719 296.21875 C 219.214844 287.824219 235.785156 276.578125 250.390625 262.882812 C 281.238281 233.984375 302.09375 194.703125 310.921875 151.644531 C 313.058594 141.230469 314.613281 130.777344 315.472656 120.292969 C 307.558594 118.675781 300.027344 114.828125 293.933594 109.117188 " fill-opacity="1" fill-rule="nonzero"/><path fill="#f5f12c" d="M 91.652344 131.445312 C 92.605469 156.160156 98.546875 179.777344 109.3125 201.636719 C 124.519531 232.554688 149.367188 258.109375 179.273438 273.589844 C 182.007812 275.007812 184.820312 276.378906 187.625 277.65625 C 189.039062 278.300781 190.496094 278.9375 191.945312 279.542969 L 193.484375 280.191406 L 195.019531 279.539062 C 196.457031 278.933594 197.894531 278.304688 199.320312 277.65625 C 202.128906 276.375 204.9375 275.007812 207.679688 273.585938 C 237.578125 258.109375 262.429688 232.554688 277.632812 201.636719 C 288.398438 179.777344 294.339844 156.160156 295.296875 131.445312 L 295.308594 131.144531 C 295.335938 130.238281 295.367188 129.34375 295.386719 128.425781 L 295.460938 125.074219 L 292.164062 124.449219 C 291.710938 124.363281 291.265625 124.257812 290.8125 124.148438 C 285.242188 122.769531 280.359375 120.09375 276.691406 116.410156 C 272.230469 111.925781 269.242188 105.984375 267.804688 98.75 C 267.648438 97.980469 267.511719 97.179688 267.390625 96.289062 L 267.164062 94.730469 L 265.4375 93.351562 C 265.109375 93.089844 264.78125 92.828125 264.449219 92.566406 L 264.292969 92.445312 C 263.828125 92.089844 263.363281 91.726562 262.898438 91.378906 C 258.875 88.300781 254.921875 85.628906 250.851562 83.25 C 239.839844 76.792969 228.128906 71.511719 216.0625 67.554688 C 211.820312 66.15625 207.445312 64.894531 203.070312 63.792969 C 200.28125 63.089844 197.308594 62.425781 194.234375 61.828125 L 193.480469 61.675781 L 192.722656 61.828125 C 189.65625 62.421875 186.679688 63.085938 183.871094 63.792969 C 179.5 64.894531 175.128906 66.160156 170.882812 67.554688 C 158.816406 71.507812 147.113281 76.792969 136.09375 83.253906 C 132.03125 85.628906 128.074219 88.300781 124.003906 91.417969 L 122.476562 92.578125 L 121.960938 92.988281 C 121.632812 93.25 121.304688 93.515625 120.976562 93.777344 L 119.777344 94.757812 L 119.5625 96.289062 C 119.433594 97.171875 119.296875 97.972656 119.144531 98.738281 C 117.710938 105.984375 114.71875 111.925781 110.253906 116.40625 C 106.589844 120.09375 101.703125 122.769531 96.128906 124.148438 C 95.683594 124.257812 95.234375 124.363281 94.785156 124.449219 L 91.492188 125.074219 L 91.5625 128.425781 C 91.578125 129.289062 91.605469 130.140625 91.632812 130.996094 L 91.648438 131.371094 L 91.652344 131.445312 M 193.476562 295.453125 C 191.316406 294.558594 189.191406 293.613281 187.121094 292.636719 C 169.609375 284.328125 153.503906 273.347656 139.261719 259.996094 C 109.742188 232.339844 88.660156 193.578125 79.902344 150.851562 C 77.988281 141.523438 76.585938 132.28125 75.71875 123.332031 C 83.136719 121.238281 89.992188 117.359375 95.714844 112.007812 C 104.378906 103.902344 110.355469 92.050781 111.9375 79.984375 C 117.363281 76.527344 122.796875 73.3125 127.027344 70.84375 C 140.429688 63.050781 154.648438 56.6875 169.285156 51.933594 C 177.019531 49.425781 185.160156 47.347656 193.480469 45.753906 C 201.78125 47.34375 209.914062 49.421875 217.667969 51.933594 C 232.296875 56.6875 246.519531 63.050781 259.925781 70.847656 C 264.15625 73.320312 269.59375 76.53125 275.003906 79.984375 C 276.59375 92.054688 282.570312 103.90625 291.230469 112.007812 C 296.941406 117.359375 303.800781 121.234375 311.230469 123.332031 C 310.363281 132.277344 308.960938 141.519531 307.042969 150.851562 C 298.289062 193.578125 277.203125 232.339844 247.683594 259.996094 C 233.441406 273.347656 217.339844 284.328125 199.816406 292.640625 C 197.816406 293.589844 195.6875 294.53125 193.476562 295.453125 " fill-opacity="1" fill-rule="nonzero"/><path fill="#fbc208" d="M 289.648438 130.984375 C 288.976562 139.25 287.75 147.488281 286.058594 155.703125 C 279.113281 189.644531 262.667969 220.613281 238.347656 243.390625 C 226.824219 254.191406 213.761719 263.050781 199.8125 269.675781 C 197.714844 270.667969 195.59375 271.585938 193.480469 272.449219 C 191.351562 271.585938 189.234375 270.667969 187.136719 269.675781 C 184.523438 268.429688 181.933594 267.113281 179.390625 265.71875 L 179.359375 265.695312 C 168.328125 259.644531 157.957031 252.164062 148.597656 243.390625 C 124.277344 220.613281 107.832031 189.644531 100.886719 155.703125 C 99.195312 147.488281 97.972656 139.25 97.296875 130.984375 C 103.53125 129.707031 109.464844 126.679688 114.277344 122.175781 C 120.777344 116.097656 125.386719 106.847656 126.257812 97.394531 L 126.257812 97.382812 C 130.648438 94.539062 135.121094 91.871094 139.515625 89.304688 C 146.234375 85.394531 153.167969 81.949219 160.273438 78.988281 C 164.597656 77.195312 168.988281 75.5625 173.433594 74.125 C 180.050781 71.980469 186.742188 70.304688 193.480469 69.039062 C 200.21875 70.304688 206.894531 71.980469 213.511719 74.125 C 225.238281 77.929688 236.625 83.019531 247.433594 89.304688 C 251.824219 91.871094 256.296875 94.539062 260.691406 97.382812 L 260.691406 97.394531 C 261.558594 106.847656 266.171875 116.097656 272.671875 122.175781 C 277.480469 126.679688 283.40625 129.707031 289.648438 130.984375 " fill-opacity="1" fill-rule="nonzero"/><path fill="#f9e30c" d="M 278.984375 137.964844 C 278.34375 143.121094 277.460938 148.386719 276.371094 153.707031 C 271.335938 178.308594 260.914062 201.15625 246.394531 219.859375 C 241.859375 225.730469 236.902344 231.1875 231.589844 236.164062 C 227.992188 239.539062 224.238281 242.707031 220.34375 245.660156 C 212.613281 251.527344 204.324219 256.578125 195.566406 260.738281 C 194.890625 261.054688 194.191406 261.367188 193.480469 261.699219 C 192.757812 261.367188 192.042969 261.042969 191.363281 260.726562 C 189.679688 259.925781 188.035156 259.101562 186.464844 258.28125 C 185.925781 257.996094 185.40625 257.714844 184.890625 257.441406 L 184.121094 257.015625 C 181.761719 255.730469 179.460938 254.367188 177.183594 252.941406 C 169.394531 248.082031 162.074219 242.460938 155.367188 236.164062 C 155.1875 235.996094 155.011719 235.828125 154.832031 235.648438 C 151.457031 232.472656 148.242188 229.082031 145.1875 225.53125 C 143.664062 223.769531 142.175781 221.957031 140.742188 220.105469 C 135.480469 213.363281 130.757812 206.085938 126.644531 198.378906 C 124.894531 195.117188 123.25 191.773438 121.726562 188.355469 C 118.816406 181.878906 116.316406 175.148438 114.246094 168.238281 C 113.683594 166.378906 113.160156 164.503906 112.664062 162.625 C 111.890625 159.6875 111.199219 156.714844 110.585938 153.714844 C 109.488281 148.386719 108.605469 143.121094 107.964844 137.964844 C 112.753906 135.90625 117.1875 133.011719 121.035156 129.398438 C 128.195312 122.707031 133.351562 113.226562 135.371094 103.332031 C 138.542969 101.363281 141.601562 99.550781 144.136719 98.074219 C 144.261719 97.996094 144.382812 97.929688 144.503906 97.859375 C 150.796875 94.183594 157.386719 90.921875 164.074219 88.128906 C 168.179688 86.421875 172.296875 84.898438 176.304688 83.613281 L 176.472656 83.554688 C 181.011719 82.078125 185.722656 80.808594 190.527344 79.75 C 191.507812 79.535156 192.488281 79.324219 193.480469 79.128906 C 199.304688 80.285156 205.007812 81.769531 210.457031 83.542969 C 211.394531 83.851562 212.328125 84.15625 213.257812 84.484375 C 222.972656 87.832031 232.421875 92.105469 241.394531 97.253906 C 241.75 97.453125 242.097656 97.652344 242.453125 97.859375 C 245.054688 99.382812 248.253906 101.265625 251.574219 103.332031 C 251.925781 105.054688 252.367188 106.757812 252.910156 108.441406 C 254.070312 112.125 255.660156 115.679688 257.632812 118.984375 C 259.917969 122.875 262.71875 126.410156 265.914062 129.410156 C 269.769531 133.011719 274.195312 135.90625 278.984375 137.964844 " fill-opacity="1" fill-rule="nonzero"/><path fill="#f9ea3b" d="M 155.082031 234.542969 C 159.273438 216.074219 164.375 194.738281 164.527344 194.070312 C 164.132812 194.714844 153.984375 211.414062 145.1875 225.53125 C 144.769531 225.046875 144.351562 224.5625 143.9375 224.070312 C 142.984375 222.371094 142.058594 220.652344 141.167969 218.917969 C 151.683594 189.492188 168.433594 144.0625 173.15625 131.203125 L 183.167969 127.015625 L 183.167969 145.8125 L 168.003906 176.722656 L 181.355469 160.386719 C 181.355469 160.386719 179.152344 182.132812 177.054688 201.351562 L 168.308594 201.351562 L 168.308594 227.925781 L 173.898438 227.925781 C 173.75 228.90625 173.625 229.597656 173.535156 229.949219 C 173.671875 229.601562 173.96875 228.917969 174.40625 227.925781 L 188.492188 227.925781 C 187.949219 229.128906 187.410156 230.328125 186.878906 231.515625 C 185.667969 231.542969 184.457031 231.589844 183.25 231.644531 C 173.832031 232.054688 164.421875 233.011719 155.082031 234.542969 M 246.394531 219.859375 L 250.347656 204.03125 C 258.554688 190.328125 264.484375 174.96875 264.964844 159.894531 C 265.414062 145.777344 261.992188 133.066406 256.304688 122.386719 C 256.75 121.230469 257.195312 120.09375 257.632812 118.984375 C 259.917969 122.875 262.71875 126.410156 265.914062 129.410156 C 269.769531 133.011719 274.195312 135.90625 278.984375 137.964844 C 278.34375 143.121094 277.460938 148.386719 276.371094 153.707031 C 271.335938 178.308594 260.914062 201.15625 246.394531 219.859375 M 130.417969 192.75 C 128.664062 187.207031 127.1875 181.554688 126.050781 175.84375 C 133.390625 154.703125 140.90625 133.53125 143.207031 128.699219 C 140.816406 132.1875 132.300781 143.800781 123.597656 155.589844 C 123.375 150.027344 123.554688 144.453125 124.195312 138.925781 C 130.726562 125.515625 137.804688 111.007812 144.136719 98.074219 C 144.261719 97.996094 144.382812 97.929688 144.503906 97.859375 C 150.796875 94.183594 157.386719 90.921875 164.074219 88.128906 C 168.179688 86.421875 172.296875 84.898438 176.304688 83.613281 L 165.421875 109.851562 L 164.777344 110.109375 L 164.988281 110.894531 L 144.257812 160.882812 L 167.480469 120.164062 L 170.722656 132.21875 L 171.445312 131.914062 C 164.246094 142.390625 145.417969 170.394531 130.417969 192.75 M 251.113281 114.019531 C 247.679688 109.226562 243.789062 104.992188 239.640625 101.386719 L 241.394531 97.253906 C 241.75 97.453125 242.097656 97.652344 242.453125 97.859375 C 245.054688 99.382812 248.253906 101.265625 251.574219 103.332031 C 251.925781 105.054688 252.367188 106.757812 252.910156 108.441406 C 252.328125 110.253906 251.726562 112.113281 251.113281 114.019531 M 175.710938 105.730469 L 190.527344 79.75 C 191.507812 79.535156 192.488281 79.324219 193.480469 79.128906 C 199.304688 80.285156 205.007812 81.769531 210.457031 83.542969 C 211.394531 83.851562 212.328125 84.15625 213.257812 84.484375 L 211.679688 87.699219 C 210.136719 87.496094 208.621094 87.394531 207.136719 87.394531 C 204.890625 87.394531 202.722656 87.628906 200.652344 88.117188 C 197.851562 88.777344 195.53125 92.554688 193.648438 98.550781 L 175.710938 105.730469 " fill-opacity="1" fill-rule="nonzero"/><g clip-path="url(#68e99a1da4)"><path fill="#ce7c1b" d="M 310.921875 151.644531 C 302.09375 194.703125 281.238281 233.984375 250.390625 262.882812 C 235.785156 276.578125 219.214844 287.824219 201.511719 296.21875 C 198.859375 297.476562 196.167969 298.644531 193.480469 299.730469 C 190.777344 298.644531 188.097656 297.476562 185.433594 296.21875 C 167.734375 287.824219 151.160156 276.578125 136.554688 262.882812 C 105.707031 233.984375 84.847656 194.703125 76.023438 151.644531 C 73.886719 141.230469 72.335938 130.777344 71.476562 120.292969 C 79.390625 118.675781 86.910156 114.828125 93.015625 109.117188 C 101.253906 101.402344 107.113281 89.679688 108.210938 77.683594 L 108.210938 77.671875 C 113.78125 74.070312 119.453125 70.683594 125.03125 67.421875 C 138.734375 59.457031 153.179688 53 168.0625 48.167969 C 176.449219 45.449219 184.929688 43.328125 193.480469 41.726562 C 202.027344 43.328125 210.496094 45.449219 218.886719 48.167969 C 233.765625 53 248.214844 59.457031 261.917969 67.421875 C 267.496094 70.683594 273.167969 74.070312 278.722656 77.671875 L 278.722656 77.683594 C 279.835938 89.679688 285.691406 101.402344 293.933594 109.117188 C 300.027344 114.828125 307.558594 118.675781 315.472656 120.292969 C 314.613281 130.777344 313.058594 141.230469 310.921875 151.644531 M 315.75 116.5 C 308.140625 114.621094 300.96875 110.867188 295.476562 105.351562 C 288.621094 98.472656 284.691406 89.761719 282.839844 80.386719 C 282.617188 79.265625 282.417969 78.136719 282.265625 77 C 281.644531 76.496094 281.019531 76 280.386719 75.503906 C 279.777344 75.027344 279.160156 74.554688 278.546875 74.089844 C 273.839844 70.492188 268.941406 67.136719 263.71875 64.082031 C 249.984375 56.03125 235.5 49.503906 220.566406 44.605469 C 215.253906 42.863281 209.863281 41.300781 204.421875 39.933594 C 200.800781 39.019531 197.148438 38.210938 193.480469 37.496094 C 189.808594 38.210938 186.15625 39.019531 182.523438 39.933594 C 177.082031 41.300781 171.691406 42.863281 166.378906 44.605469 C 151.449219 49.503906 136.964844 56.03125 123.230469 64.082031 C 118.007812 67.136719 113.109375 70.492188 108.402344 74.089844 C 107.765625 74.5625 107.152344 75.050781 106.527344 75.523438 C 105.90625 76.019531 105.292969 76.503906 104.679688 77 C 104.53125 78.136719 104.332031 79.265625 104.105469 80.386719 C 102.253906 89.761719 98.324219 98.472656 91.46875 105.351562 C 85.980469 110.867188 78.804688 114.621094 71.199219 116.5 C 70.542969 116.671875 69.878906 116.816406 69.214844 116.945312 C 69.246094 118.085938 69.269531 119.222656 69.316406 120.363281 C 69.316406 120.472656 69.324219 120.570312 69.324219 120.679688 C 70.496094 150.875 77.804688 180.476562 91.214844 207.703125 C 110.335938 246.546875 141.179688 277.785156 177.765625 296.722656 C 181.152344 298.472656 184.613281 300.167969 188.132812 301.773438 C 189.898438 302.574219 191.675781 303.355469 193.480469 304.109375 C 195.269531 303.355469 197.050781 302.574219 198.808594 301.773438 C 202.335938 300.167969 205.796875 298.472656 209.179688 296.722656 C 245.769531 277.785156 276.609375 246.546875 295.734375 207.703125 C 309.140625 180.476562 316.453125 150.875 317.621094 120.679688 C 317.621094 120.570312 317.632812 120.472656 317.632812 120.363281 C 317.679688 119.222656 317.699219 118.085938 317.730469 116.945312 C 317.0625 116.816406 316.402344 116.671875 315.75 116.5 " fill-opacity="1" fill-rule="nonzero"/></g><path fill="#ce7c1b" d="M 286.058594 155.703125 C 279.113281 189.644531 262.667969 220.613281 238.347656 243.390625 C 226.824219 254.191406 213.761719 263.050781 199.8125 269.675781 C 197.714844 270.667969 195.59375 271.585938 193.480469 272.449219 C 191.351562 271.585938 189.234375 270.667969 187.136719 269.675781 C 173.183594 263.050781 160.125 254.191406 148.597656 243.390625 C 124.277344 220.613281 107.832031 189.644531 100.886719 155.703125 C 99.195312 147.488281 97.972656 139.25 97.296875 130.984375 C 103.53125 129.707031 109.464844 126.679688 114.277344 122.175781 C 120.777344 116.097656 125.386719 106.847656 126.257812 97.394531 L 126.257812 97.382812 C 130.648438 94.539062 135.121094 91.871094 139.515625 89.304688 C 150.320312 83.019531 161.710938 77.929688 173.433594 74.125 C 180.050781 71.980469 186.742188 70.304688 193.480469 69.039062 C 200.21875 70.304688 206.894531 71.980469 213.511719 74.125 C 225.238281 77.929688 236.625 83.019531 247.433594 89.304688 C 251.824219 91.871094 256.296875 94.539062 260.691406 97.382812 L 260.691406 97.394531 C 261.558594 106.847656 266.171875 116.097656 272.671875 122.175781 C 277.480469 126.679688 283.40625 129.707031 289.648438 130.984375 C 288.976562 139.25 287.75 147.488281 286.058594 155.703125 M 273.886719 119.203125 C 268.484375 113.777344 265.386719 106.917969 263.925781 99.519531 C 263.746094 98.640625 263.597656 97.75 263.46875 96.847656 C 262.984375 96.460938 262.511719 96.074219 262.015625 95.6875 C 261.53125 95.3125 261.035156 94.929688 260.539062 94.5625 C 256.832031 91.71875 252.96875 89.078125 248.855469 86.671875 C 238.03125 80.324219 226.605469 75.175781 214.832031 71.316406 C 210.648438 69.9375 206.402344 68.710938 202.105469 67.632812 C 199.246094 66.910156 196.367188 66.277344 193.480469 65.710938 C 190.582031 66.277344 187.699219 66.910156 184.839844 67.632812 C 180.546875 68.710938 176.304688 69.9375 172.117188 71.316406 C 160.34375 75.175781 148.917969 80.324219 138.089844 86.671875 C 133.972656 89.078125 130.117188 91.71875 126.40625 94.5625 C 125.921875 94.929688 125.4375 95.304688 124.953125 95.671875 C 124.457031 96.070312 123.960938 96.453125 123.480469 96.847656 C 123.351562 97.75 123.199219 98.640625 123.023438 99.519531 C 121.558594 106.917969 118.460938 113.777344 113.058594 119.203125 C 108.734375 123.550781 103.074219 126.511719 97.078125 127.996094 C 96.554688 128.125 96.039062 128.242188 95.519531 128.339844 C 95.535156 129.253906 95.566406 130.140625 95.597656 131.042969 C 95.597656 131.121094 95.605469 131.210938 95.605469 131.289062 C 96.527344 155.089844 102.296875 178.425781 112.863281 199.886719 C 127.929688 230.519531 152.25 255.144531 181.089844 270.070312 C 183.761719 271.457031 186.484375 272.785156 189.265625 274.050781 C 190.660156 274.6875 192.0625 275.296875 193.480469 275.894531 C 194.882812 275.296875 196.289062 274.6875 197.683594 274.050781 C 200.464844 272.785156 203.1875 271.457031 205.855469 270.070312 C 234.695312 255.144531 259.015625 230.519531 274.085938 199.886719 C 284.65625 178.425781 290.421875 155.089844 291.339844 131.289062 C 291.339844 131.210938 291.351562 131.121094 291.351562 131.042969 C 291.382812 130.140625 291.410156 129.253906 291.429688 128.339844 C 290.90625 128.242188 290.390625 128.125 289.867188 127.996094 C 283.871094 126.511719 278.210938 123.550781 273.886719 119.203125 " fill-opacity="1" fill-rule="nonzero"/><path fill="#f6ba0b" d="M 142.210938 237.03125 C 121.390625 215 107.207031 186.582031 100.886719 155.703125 C 99.195312 147.488281 97.972656 139.25 97.296875 130.984375 C 103.53125 129.707031 109.464844 126.679688 114.277344 122.175781 C 120.777344 116.097656 125.386719 106.847656 126.257812 97.394531 L 126.257812 97.382812 C 130.648438 94.539062 135.121094 91.871094 139.515625 89.304688 C 146.222656 85.402344 153.148438 81.964844 160.242188 79.007812 C 150.570312 84.738281 142.628906 92.96875 136.652344 102.542969 C 136.230469 102.800781 135.800781 103.066406 135.371094 103.332031 C 135.222656 104.074219 135.050781 104.816406 134.867188 105.550781 C 132.089844 110.449219 129.816406 115.648438 128.058594 121.007812 C 126.027344 124.105469 123.667969 126.941406 121.035156 129.398438 C 117.1875 133.011719 112.753906 135.90625 107.964844 137.964844 C 108.605469 143.121094 109.488281 148.386719 110.585938 153.714844 C 111.199219 156.714844 111.890625 159.6875 112.664062 162.625 C 113.160156 164.503906 113.683594 166.378906 114.246094 168.238281 C 116.316406 175.148438 118.816406 181.878906 121.726562 188.355469 C 123.25 191.773438 124.894531 195.117188 126.644531 198.378906 C 130.757812 206.085938 135.480469 213.363281 140.742188 220.105469 C 141.785156 221.449219 142.847656 222.773438 143.9375 224.070312 C 146.097656 227.902344 148.414062 231.644531 150.882812 235.269531 C 147.988281 235.800781 145.09375 236.386719 142.210938 237.03125 " fill-opacity="1" fill-rule="nonzero"/><path fill="#eed808" d="M 140.742188 220.105469 C 135.480469 213.363281 130.757812 206.085938 126.644531 198.378906 C 127.867188 196.550781 129.128906 194.671875 130.417969 192.75 C 130.8125 194.007812 131.222656 195.261719 131.652344 196.503906 C 134.253906 204.152344 137.433594 211.675781 141.167969 218.917969 C 141.023438 219.316406 140.882812 219.714844 140.742188 220.105469 M 121.726562 188.355469 C 118.816406 181.878906 116.316406 175.148438 114.246094 168.238281 C 117.195312 164.257812 120.410156 159.914062 123.597656 155.589844 C 123.867188 162.371094 124.722656 169.148438 126.050781 175.84375 C 124.589844 180.058594 123.132812 184.273438 121.726562 188.355469 M 112.664062 162.625 C 111.890625 159.6875 111.199219 156.714844 110.585938 153.714844 C 109.488281 148.386719 108.605469 143.121094 107.964844 137.964844 C 112.753906 135.90625 117.1875 133.011719 121.035156 129.398438 C 123.667969 126.941406 126.027344 124.105469 128.058594 121.007812 C 127.003906 124.242188 126.136719 127.539062 125.46875 130.855469 C 124.929688 133.53125 124.503906 136.226562 124.195312 138.925781 C 120.011719 147.511719 116.054688 155.644531 112.664062 162.625 M 134.867188 105.550781 C 135.050781 104.816406 135.222656 104.074219 135.371094 103.332031 C 135.800781 103.066406 136.230469 102.800781 136.652344 102.542969 C 136.035156 103.53125 135.441406 104.535156 134.867188 105.550781 " fill-opacity="1" fill-rule="nonzero"/><path fill="#edde34" d="M 143.9375 224.070312 C 142.847656 222.773438 141.785156 221.449219 140.742188 220.105469 C 140.882812 219.714844 141.023438 219.316406 141.167969 218.917969 C 142.058594 220.652344 142.984375 222.371094 143.9375 224.070312 M 126.644531 198.378906 C 124.894531 195.117188 123.25 191.773438 121.726562 188.355469 C 123.132812 184.273438 124.589844 180.058594 126.050781 175.84375 C 127.1875 181.554688 128.664062 187.207031 130.417969 192.75 C 129.128906 194.671875 127.867188 196.550781 126.644531 198.378906 M 114.246094 168.238281 C 113.683594 166.378906 113.160156 164.503906 112.664062 162.625 C 116.054688 155.644531 120.011719 147.511719 124.195312 138.925781 C 123.554688 144.453125 123.375 150.027344 123.597656 155.589844 C 120.410156 159.914062 117.195312 164.257812 114.246094 168.238281 " fill-opacity="1" fill-rule="nonzero"/><path fill="#c5741d" d="M 142.210938 237.03125 C 121.390625 215 107.207031 186.582031 100.886719 155.703125 C 99.195312 147.488281 97.972656 139.25 97.296875 130.984375 C 97.972656 139.25 99.195312 147.488281 100.886719 155.703125 C 107.207031 186.582031 121.390625 215 142.210938 237.03125 M 139.515625 89.304688 C 146.234375 85.394531 153.167969 81.949219 160.273438 78.988281 C 160.265625 78.996094 160.25 79 160.242188 79.007812 C 153.148438 81.964844 146.222656 85.402344 139.515625 89.304688 " fill-opacity="1" fill-rule="nonzero"/><path fill="#f9ea3b" d="M 226.851562 233.777344 C 226.515625 233.730469 226.183594 233.679688 225.847656 233.636719 L 263.480469 151.480469 L 250.347656 204.03125 C 243.492188 215.476562 235.046875 225.765625 226.851562 233.777344 M 213.6875 232.285156 C 213.46875 232.265625 213.25 232.25 213.03125 232.230469 C 213.433594 230.957031 213.890625 229.519531 214.402344 227.925781 L 215.402344 227.925781 C 214.769531 229.539062 214.195312 230.996094 213.6875 232.285156 M 191.492188 231.429688 C 191.304688 230.300781 191.117188 229.128906 190.9375 227.925781 L 195.945312 227.925781 L 194.851562 231.421875 C 194.390625 231.421875 193.929688 231.417969 193.472656 231.417969 C 192.8125 231.417969 192.15625 231.421875 191.492188 231.429688 M 222.167969 210.527344 L 222.167969 203.707031 C 224.152344 197.546875 226.304688 190.855469 228.558594 183.863281 C 228.597656 183.875 228.636719 183.878906 228.675781 183.882812 C 228.765625 183.894531 228.863281 183.902344 228.960938 183.902344 C 230.011719 183.902344 231.429688 183.355469 233.058594 182.355469 C 229.144531 192.492188 225.414062 202.148438 222.167969 210.527344 M 209.914062 183.191406 L 209.914062 180.191406 C 211.765625 176.058594 212.910156 173.503906 213.011719 173.277344 L 209.914062 183.191406 M 209.914062 149.277344 L 209.914062 97.839844 L 206.703125 97.839844 L 211.679688 87.699219 C 220.859375 88.929688 230.832031 93.734375 239.640625 101.386719 L 232.824219 117.40625 C 232.289062 117.320312 231.753906 117.277344 231.234375 117.277344 C 230.566406 117.277344 229.917969 117.347656 229.28125 117.496094 C 226.40625 118.175781 224.761719 126.933594 224.117188 137.878906 L 220.453125 146.5 C 220.636719 145.394531 226.121094 113.808594 225.90625 113.808594 C 225.898438 113.808594 225.894531 113.828125 225.882812 113.855469 C 225.707031 114.390625 218.726562 129.824219 209.914062 149.277344 M 251.328125 135.160156 C 250.101562 132.453125 248.535156 129.847656 246.753906 127.5 C 248.257812 122.839844 249.722656 118.320312 251.113281 114.019531 C 252.992188 116.644531 254.734375 119.4375 256.304688 122.386719 C 254.722656 126.421875 253.058594 130.707031 251.328125 135.160156 " fill-opacity="1" fill-rule="nonzero"/><path fill="#f9ee62" d="M 225.847656 233.636719 C 221.804688 233.082031 217.75 232.632812 213.6875 232.285156 C 214.195312 230.996094 214.769531 229.539062 215.402344 227.925781 L 222.167969 227.925781 L 222.167969 210.527344 C 225.414062 202.148438 229.144531 192.492188 233.058594 182.355469 C 240.941406 177.527344 253.757812 162.144531 254.085938 147.15625 C 254.171875 143.28125 253.117188 139.113281 251.328125 135.160156 C 253.058594 130.707031 254.722656 126.421875 256.304688 122.386719 C 261.992188 133.066406 265.414062 145.777344 264.964844 159.894531 C 264.484375 174.96875 258.554688 190.328125 250.347656 204.03125 L 263.480469 151.480469 L 225.847656 233.636719 M 213.03125 232.230469 C 209.921875 231.976562 206.808594 231.78125 203.699219 231.644531 C 200.75 231.515625 197.800781 231.441406 194.851562 231.421875 L 195.945312 227.925781 L 214.402344 227.925781 C 213.890625 229.519531 213.433594 230.957031 213.03125 232.230469 M 222.167969 203.707031 L 222.167969 201.351562 L 209.914062 201.351562 L 209.914062 183.191406 L 213.011719 173.277344 C 212.910156 173.503906 211.765625 176.058594 209.914062 180.191406 L 209.914062 149.277344 C 218.726562 129.824219 225.707031 114.390625 225.882812 113.855469 C 225.894531 113.828125 225.898438 113.808594 225.90625 113.808594 C 226.121094 113.808594 220.636719 145.394531 220.453125 146.5 L 224.117188 137.878906 C 222.984375 157.058594 224.898438 182.945312 228.558594 183.863281 C 226.304688 190.855469 224.152344 197.546875 222.167969 203.707031 M 246.753906 127.5 C 242.699219 122.160156 237.546875 118.167969 232.824219 117.40625 L 239.640625 101.386719 C 243.789062 104.992188 247.679688 109.226562 251.113281 114.019531 C 249.722656 118.320312 248.257812 122.839844 246.753906 127.5 M 193.648438 98.550781 C 195.53125 92.554688 197.851562 88.777344 200.652344 88.117188 C 202.722656 87.628906 204.890625 87.394531 207.136719 87.394531 C 208.621094 87.394531 210.136719 87.496094 211.679688 87.699219 L 206.703125 97.839844 L 195.421875 97.839844 L 193.648438 98.550781 " fill-opacity="1" fill-rule="nonzero"/><path fill="#f9ee62" d="M 228.960938 183.902344 C 228.863281 183.902344 228.765625 183.894531 228.675781 183.882812 C 228.636719 183.878906 228.597656 183.875 228.558594 183.863281 C 234.414062 165.699219 240.929688 145.53125 246.753906 127.5 C 248.535156 129.847656 250.101562 132.453125 251.328125 135.160156 C 245.550781 150.023438 239.085938 166.75 233.058594 182.355469 C 231.429688 183.355469 230.011719 183.902344 228.960938 183.902344 M 224.117188 137.878906 C 224.761719 126.933594 226.40625 118.175781 229.28125 117.496094 C 229.917969 117.347656 230.566406 117.277344 231.234375 117.277344 C 231.753906 117.277344 232.289062 117.320312 232.824219 117.40625 L 224.117188 137.878906 " fill-opacity="1" fill-rule="nonzero"/><path fill="#faf183" d="M 228.558594 183.863281 C 224.898438 182.945312 222.984375 157.058594 224.117188 137.878906 L 232.824219 117.40625 C 237.546875 118.167969 242.699219 122.160156 246.753906 127.5 C 240.929688 145.53125 234.414062 165.699219 228.558594 183.863281 M 233.058594 182.355469 C 239.085938 166.75 245.550781 150.023438 251.328125 135.160156 C 253.117188 139.113281 254.171875 143.28125 254.085938 147.15625 C 253.757812 162.144531 240.941406 177.527344 233.058594 182.355469 " fill-opacity="1" fill-rule="nonzero"/><path fill="#fbc208" d="M 209.914062 97.839844 L 195.421875 97.839844 L 164.777344 110.109375 L 170.722656 132.21875 L 183.167969 127.015625 L 183.167969 201.351562 L 168.308594 201.351562 L 168.308594 227.925781 L 222.167969 227.925781 L 222.167969 201.351562 L 209.914062 201.351562 L 209.914062 97.839844 " fill-opacity="1" fill-rule="nonzero"/><path fill="#f9dd05" d="M 217.40625 206.117188 L 217.40625 223.164062 L 173.070312 223.164062 L 173.070312 206.117188 L 187.929688 206.117188 L 187.929688 119.863281 L 185.28125 120.96875 L 182.484375 122.144531 L 173.910156 125.722656 L 172.832031 121.722656 L 170.476562 112.960938 L 177.820312 110.019531 L 196.335938 102.601562 L 205.152344 102.601562 L 205.152344 206.117188 L 217.40625 206.117188 " fill-opacity="1" fill-rule="nonzero"/><path fill="#f8ec46" d="M 182.757812 223.164062 L 177.796875 223.164062 L 203.144531 193.34375 L 182.757812 223.164062 " fill-opacity="1" fill-rule="nonzero"/><path fill="#f8ec46" d="M 187.929688 196.171875 L 187.929688 184.398438 L 205.152344 155.976562 L 205.152344 166.136719 L 195.277344 180.425781 C 195.59375 180.074219 200.070312 175.09375 205.152344 169.507812 L 205.152344 175.3125 L 187.929688 196.171875 " fill-opacity="1" fill-rule="nonzero"/><path fill="#f8ec46" d="M 187.929688 167.496094 L 187.929688 139.5 L 199.207031 108.410156 L 187.929688 130.972656 L 187.929688 119.863281 L 185.28125 120.96875 L 189.535156 108.765625 L 182.484375 122.144531 L 173.910156 125.722656 L 172.832031 121.722656 C 174.378906 118.070312 176.171875 113.867188 177.820312 110.019531 L 196.335938 102.601562 L 205.152344 102.601562 L 205.152344 116.683594 C 199.515625 130.753906 193.089844 146.667969 191.152344 151.015625 C 193.0625 147.4375 199.375 136.089844 205.152344 125.722656 L 205.152344 134.179688 C 200.039062 144.121094 192.710938 158.34375 187.929688 167.496094 " fill-opacity="1" fill-rule="nonzero"/><path fill="#f8ec46" d="M 217.40625 223.164062 L 183.6875 223.164062 L 205.152344 199.402344 L 205.152344 206.117188 L 217.40625 206.117188 L 217.40625 223.164062 " fill-opacity="1" fill-rule="nonzero"/><path fill="#fbf8bf" d="M 170.476562 112.960938 L 196.566406 104.230469 L 203.707031 104.429688 L 203.113281 207.476562 L 215.414062 207.875 L 217.40625 223.160156 L 217.40625 206.117188 L 205.152344 206.117188 L 205.152344 102.605469 L 196.339844 102.605469 L 170.476562 112.960938 " fill-opacity="1" fill-rule="nonzero"/><path fill="#c2aa19" d="M 170.476562 112.960938 L 174.441406 124.683594 L 188.730469 118.824219 L 189.222656 207.179688 L 174.042969 207.179688 L 173.84375 222.464844 L 217.40625 223.160156 L 173.070312 223.160156 L 173.070312 206.117188 L 187.929688 206.117188 L 187.929688 119.863281 L 173.910156 125.726562 L 170.476562 112.960938 " fill-opacity="1" fill-rule="nonzero"/><path fill="#e61d25" d="M 105.503906 248.65625 C 103.742188 249.390625 101.992188 250.148438 100.246094 250.933594 C 96.5 252.578125 92.796875 254.328125 89.121094 256.175781 C 90.847656 252.347656 98.484375 239.496094 100.617188 236.273438 C 101.453125 238.496094 102.320312 240.710938 103.222656 242.914062 C 104 244.8125 104.742188 246.738281 105.503906 248.65625 " fill-opacity="1" fill-rule="nonzero"/><path fill="#e61d25" d="M 286.703125 250.933594 C 284.957031 250.148438 283.207031 249.390625 281.445312 248.65625 C 282.207031 246.738281 282.945312 244.8125 283.726562 242.914062 C 284.628906 240.710938 285.496094 238.496094 286.328125 236.273438 C 287.335938 237.933594 289.957031 242.050781 292.382812 246.230469 C 294.734375 250.25 296.90625 254.320312 297.824219 256.175781 C 294.152344 254.328125 290.445312 252.578125 286.703125 250.933594 " fill-opacity="1" fill-rule="nonzero"/><path fill="#f03a22" d="M 99.320312 235.734375 C 86.722656 240.949219 74.464844 247.25 62.699219 254.648438 C 48.390625 263.644531 34.851562 274.246094 22.128906 286.332031 C 29.765625 284.070312 37.304688 282.460938 44.710938 281.3125 C 46.859375 280.976562 48.988281 280.699219 51.113281 280.457031 C 51.855469 280.371094 52.59375 280.296875 53.335938 280.21875 C 56.992188 279.847656 60.613281 279.589844 64.210938 279.375 C 65.140625 279.320312 66.078125 279.265625 67.007812 279.226562 C 67.445312 279.207031 67.882812 279.1875 68.320312 279.171875 C 68.144531 279.574219 67.96875 279.976562 67.800781 280.375 C 67.429688 281.230469 67.066406 282.082031 66.710938 282.933594 C 64.28125 288.789062 62.304688 294.695312 60.472656 300.59375 C 58.261719 307.695312 56.441406 314.8125 54.835938 321.917969 C 65.171875 311.433594 76.546875 302.464844 88.578125 294.96875 C 92.988281 292.222656 97.484375 289.675781 102.054688 287.316406 C 101.773438 286.789062 101.496094 286.253906 101.21875 285.71875 C 96.742188 277.113281 92.269531 268.507812 87.800781 259.894531 C 87.414062 259.152344 87.023438 258.402344 86.640625 257.65625 C 86.675781 257.570312 86.714844 257.484375 86.757812 257.390625 C 88.351562 253.394531 97.058594 239.078125 99.320312 235.734375 " fill-opacity="1" fill-rule="nonzero"/><path fill="#f03a22" d="M 342.234375 281.3125 C 349.640625 282.460938 357.179688 284.070312 364.820312 286.332031 C 352.097656 274.246094 338.554688 263.644531 324.25 254.648438 C 312.484375 247.25 300.226562 240.949219 287.628906 235.734375 C 289.886719 239.078125 298.597656 253.394531 300.1875 257.390625 C 300.234375 257.484375 300.269531 257.570312 300.308594 257.65625 C 299.921875 258.402344 299.53125 259.152344 299.144531 259.894531 C 294.679688 268.507812 290.207031 277.113281 285.726562 285.71875 C 285.449219 286.253906 285.175781 286.789062 284.890625 287.316406 C 288.386719 289.121094 291.84375 291.039062 295.25 293.070312 C 308.433594 300.9375 320.886719 310.53125 332.113281 321.917969 C 330.507812 314.8125 328.6875 307.695312 326.476562 300.59375 C 324.640625 294.695312 322.667969 288.789062 320.234375 282.933594 C 319.878906 282.082031 319.519531 281.230469 319.148438 280.375 C 318.976562 279.976562 318.804688 279.574219 318.625 279.171875 C 319.0625 279.1875 319.5 279.207031 319.941406 279.226562 C 320.871094 279.265625 321.804688 279.320312 322.734375 279.375 C 326.335938 279.589844 329.960938 279.851562 333.617188 280.222656 C 334.355469 280.296875 335.089844 280.371094 335.832031 280.457031 C 337.957031 280.695312 340.089844 280.976562 342.234375 281.3125 " fill-opacity="1" fill-rule="nonzero"/><path fill="#f03a22" d="M 283.328125 286.523438 C 283.105469 286.964844 282.886719 287.40625 282.664062 287.851562 C 280.765625 291.636719 278.882812 295.433594 277.007812 299.230469 C 276.765625 299.71875 276.527344 300.210938 276.28125 300.699219 C 273.210938 299.128906 270.101562 297.65625 266.960938 296.273438 C 246.195312 286.851562 223.855469 282.003906 201.523438 281.039062 C 196.160156 280.800781 190.789062 280.800781 185.425781 281.039062 C 163.089844 282.003906 140.75 286.851562 119.984375 296.273438 C 116.84375 297.65625 113.738281 299.128906 110.664062 300.699219 C 110.417969 300.210938 110.179688 299.71875 109.9375 299.230469 C 108.066406 295.433594 106.175781 291.636719 104.28125 287.851562 C 104.0625 287.40625 103.84375 286.964844 103.617188 286.523438 C 98.816406 276.933594 93.941406 267.390625 88.957031 257.894531 C 104.03125 250.21875 119.761719 244.273438 135.871094 240.128906 C 148.449219 236.886719 161.25 234.730469 174.125 233.648438 C 180.5625 233.109375 187.019531 232.839844 193.476562 232.839844 C 199.929688 232.839844 206.386719 233.105469 212.824219 233.648438 C 225.699219 234.730469 238.5 236.886719 251.078125 240.128906 C 267.183594 244.269531 282.917969 250.21875 297.992188 257.894531 C 293.003906 267.390625 288.128906 276.933594 283.328125 286.523438 " fill-opacity="1" fill-rule="nonzero"/><g clip-path="url(#2d7a2312bd)"><path fill="#d12e24" d="M 282.664062 287.851562 C 282.886719 287.40625 283.105469 286.964844 283.328125 286.523438 C 288.128906 276.933594 293.003906 267.390625 297.992188 257.894531 C 282.917969 250.21875 267.183594 244.273438 251.078125 240.128906 C 238.5 236.886719 225.699219 234.730469 212.824219 233.648438 C 206.386719 233.105469 199.929688 232.839844 193.476562 232.839844 C 187.019531 232.839844 180.5625 233.109375 174.125 233.648438 C 161.25 234.730469 148.449219 236.886719 135.871094 240.128906 C 119.761719 244.269531 104.03125 250.222656 88.957031 257.894531 C 93.941406 267.390625 98.816406 276.933594 103.617188 286.523438 C 103.84375 286.964844 104.0625 287.40625 104.28125 287.851562 C 106.179688 291.636719 108.066406 295.433594 109.9375 299.230469 C 110.179688 299.71875 110.417969 300.210938 110.664062 300.699219 C 113.738281 299.128906 116.84375 297.65625 119.984375 296.273438 C 140.75 286.851562 163.089844 282.003906 185.425781 281.039062 C 190.789062 280.800781 196.160156 280.800781 201.523438 281.039062 C 223.855469 282.003906 246.195312 286.851562 266.960938 296.273438 C 270.101562 297.65625 273.210938 299.128906 276.28125 300.699219 C 276.527344 300.210938 276.765625 299.71875 277.007812 299.230469 C 278.882812 295.433594 280.765625 291.636719 282.664062 287.851562 M 285.59375 234.90625 C 285.78125 234.46875 285.976562 234.03125 286.175781 233.59375 L 286.398438 233.679688 C 286.652344 233.789062 286.910156 233.890625 287.164062 233.996094 C 316.148438 245.761719 343.542969 263.21875 366.90625 286.816406 L 367.121094 287.035156 C 367.542969 287.460938 367.964844 287.890625 368.382812 288.324219 C 367.613281 288.09375 366.851562 287.867188 366.078125 287.640625 C 357.832031 285.242188 349.65625 283.359375 341.648438 282.136719 C 340.140625 281.910156 338.640625 281.699219 337.140625 281.507812 C 336.410156 281.417969 335.6875 281.328125 334.953125 281.246094 C 330.652344 280.75 326.402344 280.441406 322.253906 280.386719 C 321.625 280.378906 320.992188 280.375 320.367188 280.375 C 320.585938 280.960938 320.804688 281.554688 321.019531 282.136719 C 323.171875 288.019531 325.324219 293.933594 327.164062 299.847656 C 329.417969 307.066406 331.382812 314.300781 332.882812 321.511719 C 333.011719 322.132812 333.136719 322.746094 333.257812 323.371094 C 333.144531 323.484375 333.03125 323.59375 332.914062 323.703125 C 332.828125 323.792969 332.738281 323.875 332.648438 323.964844 L 332.550781 323.867188 C 332.21875 323.539062 331.882812 323.21875 331.550781 322.902344 C 321.039062 312.832031 309.84375 304 297.992188 296.546875 C 293.480469 293.710938 288.882812 291.074219 284.203125 288.640625 C 281.992188 292.878906 279.757812 297.109375 277.5 301.324219 L 277.417969 301.484375 C 277.308594 301.679688 277.207031 301.878906 277.101562 302.082031 C 277.042969 302.191406 276.980469 302.296875 276.925781 302.410156 C 276.527344 302.203125 276.128906 302.007812 275.730469 301.8125 C 264.300781 296.207031 252.511719 291.6875 240.414062 288.445312 C 229.992188 285.65625 219.363281 283.8125 208.671875 282.917969 C 203.617188 282.492188 198.546875 282.28125 193.476562 282.28125 C 188.402344 282.28125 183.332031 282.492188 178.273438 282.917969 C 167.585938 283.8125 156.960938 285.65625 146.53125 288.445312 C 134.433594 291.6875 122.644531 296.207031 111.21875 301.8125 C 110.820312 302.003906 110.417969 302.203125 110.023438 302.410156 C 109.964844 302.296875 109.902344 302.191406 109.84375 302.082031 C 109.738281 301.878906 109.636719 301.679688 109.53125 301.484375 L 109.445312 301.324219 C 107.191406 297.109375 104.957031 292.878906 102.742188 288.640625 C 98.066406 291.078125 93.464844 293.710938 88.957031 296.546875 C 77.101562 304 65.910156 312.832031 55.394531 322.902344 C 55.0625 323.21875 54.730469 323.539062 54.398438 323.867188 L 54.296875 323.964844 C 54.210938 323.878906 54.121094 323.792969 54.03125 323.703125 C 53.914062 323.59375 53.804688 323.484375 53.691406 323.371094 C 53.808594 322.746094 53.9375 322.132812 54.066406 321.511719 C 55.5625 314.300781 57.53125 307.066406 59.78125 299.847656 C 61.621094 293.933594 63.773438 288.019531 65.929688 282.136719 C 66.140625 281.554688 66.359375 280.960938 66.578125 280.375 C 65.949219 280.375 65.324219 280.378906 64.695312 280.386719 C 60.546875 280.441406 56.292969 280.75 51.988281 281.246094 C 51.261719 281.328125 50.535156 281.417969 49.800781 281.507812 C 48.304688 281.699219 46.804688 281.910156 45.300781 282.136719 C 37.289062 283.359375 29.113281 285.246094 20.867188 287.640625 C 20.09375 287.867188 19.332031 288.09375 18.566406 288.324219 C 18.984375 287.890625 19.40625 287.460938 19.824219 287.035156 L 20.039062 286.816406 C 43.402344 263.21875 70.796875 245.761719 99.78125 233.996094 C 100.039062 233.890625 100.292969 233.789062 100.550781 233.679688 L 100.773438 233.59375 C 100.96875 234.03125 101.164062 234.46875 101.351562 234.90625 L 101.402344 235.003906 C 102.484375 237.449219 103.523438 239.902344 104.519531 242.386719 C 105.289062 244.289062 106.085938 246.183594 106.878906 248.085938 C 131.339844 238.074219 157.277344 232.773438 183.25 231.644531 C 190.0625 231.34375 196.886719 231.34375 203.699219 231.644531 C 229.675781 232.773438 255.605469 238.074219 280.066406 248.085938 C 280.859375 246.183594 281.660156 244.289062 282.425781 242.386719 C 283.425781 239.90625 284.46875 237.449219 285.546875 235.003906 L 285.59375 234.90625 M 89.121094 256.175781 C 92.796875 254.328125 96.5 252.578125 100.246094 250.933594 C 101.992188 250.148438 103.742188 249.390625 105.503906 248.65625 C 104.742188 246.734375 104 244.8125 103.222656 242.914062 C 102.320312 240.710938 101.453125 238.496094 100.617188 236.273438 C 98.484375 239.496094 90.847656 252.347656 89.121094 256.175781 M 68.320312 279.171875 C 68.144531 279.574219 67.96875 279.976562 67.800781 280.375 C 67.429688 281.230469 67.066406 282.082031 66.710938 282.933594 C 64.28125 288.789062 62.304688 294.695312 60.472656 300.59375 C 58.261719 307.695312 56.441406 314.8125 54.835938 321.917969 C 68.964844 307.585938 85.019531 296.101562 102.054688 287.316406 C 101.773438 286.789062 101.496094 286.253906 101.21875 285.71875 C 96.742188 277.113281 92.269531 268.507812 87.800781 259.894531 C 87.609375 259.527344 87.414062 259.152344 87.222656 258.78125 C 87.027344 258.410156 86.835938 258.03125 86.640625 257.65625 C 86.675781 257.570312 86.714844 257.484375 86.757812 257.390625 C 88.351562 253.394531 97.058594 239.078125 99.320312 235.734375 C 86.722656 240.949219 74.464844 247.25 62.699219 254.648438 C 48.390625 263.644531 34.851562 274.246094 22.128906 286.332031 C 29.765625 284.070312 37.304688 282.460938 44.710938 281.3125 C 46.859375 280.976562 48.988281 280.699219 51.113281 280.457031 C 51.855469 280.375 52.59375 280.296875 53.335938 280.21875 C 56.992188 279.847656 60.613281 279.589844 64.210938 279.375 C 65.140625 279.320312 66.078125 279.265625 67.007812 279.226562 C 67.445312 279.207031 67.882812 279.1875 68.320312 279.171875 M 320.234375 282.933594 C 319.878906 282.082031 319.519531 281.230469 319.148438 280.375 C 318.976562 279.976562 318.804688 279.574219 318.625 279.171875 C 319.0625 279.1875 319.5 279.207031 319.941406 279.226562 C 320.871094 279.265625 321.804688 279.320312 322.734375 279.375 C 326.335938 279.589844 329.960938 279.851562 333.617188 280.222656 C 334.355469 280.296875 335.089844 280.375 335.832031 280.457031 C 337.957031 280.699219 340.089844 280.976562 342.234375 281.3125 C 349.640625 282.464844 357.179688 284.066406 364.820312 286.332031 C 352.097656 274.246094 338.554688 263.644531 324.25 254.648438 C 312.484375 247.25 300.226562 240.949219 287.628906 235.734375 C 289.886719 239.078125 298.597656 253.394531 300.1875 257.390625 C 300.234375 257.484375 300.269531 257.570312 300.308594 257.65625 C 300.113281 258.03125 299.917969 258.410156 299.722656 258.78125 C 299.53125 259.152344 299.335938 259.527344 299.144531 259.894531 C 294.679688 268.507812 290.207031 277.113281 285.726562 285.71875 C 285.449219 286.253906 285.175781 286.789062 284.890625 287.316406 C 301.925781 296.101562 317.984375 307.585938 332.113281 321.917969 C 330.507812 314.8125 328.6875 307.695312 326.476562 300.59375 C 324.640625 294.695312 322.667969 288.789062 320.234375 282.933594 M 283.726562 242.914062 C 282.945312 244.8125 282.207031 246.734375 281.445312 248.65625 C 283.207031 249.390625 284.957031 250.148438 286.703125 250.933594 C 290.445312 252.578125 294.152344 254.328125 297.824219 256.175781 C 296.90625 254.320312 294.734375 250.25 292.382812 246.230469 C 289.957031 242.050781 287.335938 237.933594 286.328125 236.273438 C 285.496094 238.496094 284.628906 240.710938 283.726562 242.914062 " fill-opacity="1" fill-rule="nonzero"/></g><path fill="#ee2a22" d="M 295.25 293.070312 C 295.152344 293.011719 295.054688 292.953125 294.953125 292.894531 C 291.644531 290.925781 288.285156 289.070312 284.890625 287.316406 C 285.175781 286.789062 285.449219 286.253906 285.726562 285.71875 C 290.207031 277.113281 294.679688 268.507812 299.144531 259.894531 C 299.203125 259.785156 299.257812 259.675781 299.316406 259.5625 C 299.425781 259.351562 299.539062 259.140625 299.648438 258.929688 C 299.6875 258.851562 299.726562 258.777344 299.765625 258.699219 C 299.945312 258.355469 300.125 258.003906 300.308594 257.65625 C 300.269531 257.570312 300.234375 257.484375 300.1875 257.390625 C 298.597656 253.394531 289.886719 239.078125 287.628906 235.734375 C 287.65625 235.746094 287.683594 235.757812 287.710938 235.769531 C 287.726562 235.777344 287.738281 235.785156 287.753906 235.785156 C 287.765625 235.792969 287.78125 235.796875 287.792969 235.804688 C 287.8125 235.8125 287.828125 235.816406 287.847656 235.824219 C 287.847656 235.828125 287.855469 235.832031 287.863281 235.832031 C 289.996094 236.714844 292.121094 237.632812 294.234375 238.582031 C 294.238281 238.582031 294.246094 238.585938 294.246094 238.589844 C 294.273438 238.601562 294.292969 238.605469 294.3125 238.617188 C 294.355469 238.636719 294.390625 238.65625 294.433594 238.671875 C 294.445312 238.679688 294.457031 238.683594 294.46875 238.6875 C 294.484375 238.695312 294.496094 238.703125 294.511719 238.710938 C 294.527344 238.714844 294.542969 238.722656 294.5625 238.730469 C 294.570312 238.738281 294.585938 238.738281 294.597656 238.746094 C 294.625 238.757812 294.652344 238.769531 294.679688 238.785156 C 294.683594 238.785156 294.683594 238.785156 294.6875 238.789062 C 294.714844 238.796875 294.746094 238.8125 294.773438 238.824219 C 294.78125 238.828125 294.785156 238.828125 294.789062 238.832031 C 300.730469 241.515625 306.585938 244.445312 312.34375 247.628906 C 309.046875 248.574219 306.355469 250.394531 304.449219 252.636719 C 300.734375 257.015625 299.425781 262.753906 298.003906 268.316406 C 295.976562 276.253906 293.941406 284.679688 295.25 293.070312 " fill-opacity="1" fill-rule="nonzero"/><path fill="#bb2f24" d="M 294.953125 292.894531 C 291.644531 290.929688 288.285156 289.070312 284.890625 287.316406 C 288.285156 289.070312 291.644531 290.925781 294.953125 292.894531 M 299.316406 259.5625 C 299.425781 259.351562 299.539062 259.140625 299.648438 258.929688 C 299.539062 259.140625 299.425781 259.351562 299.316406 259.5625 M 299.765625 258.699219 C 299.945312 258.355469 300.125 258.003906 300.308594 257.65625 C 300.125 258.003906 299.945312 258.355469 299.765625 258.699219 M 300.308594 257.65625 C 300.269531 257.570312 300.234375 257.484375 300.1875 257.390625 C 298.597656 253.394531 289.886719 239.078125 287.628906 235.734375 C 289.886719 239.078125 298.597656 253.394531 300.1875 257.390625 C 300.234375 257.484375 300.269531 257.570312 300.308594 257.65625 M 294.789062 238.832031 C 294.785156 238.828125 294.78125 238.828125 294.773438 238.824219 C 294.78125 238.828125 294.785156 238.828125 294.789062 238.832031 M 294.6875 238.789062 C 294.683594 238.785156 294.683594 238.785156 294.679688 238.785156 C 294.683594 238.785156 294.683594 238.785156 294.6875 238.789062 M 294.597656 238.746094 C 294.585938 238.738281 294.570312 238.738281 294.5625 238.730469 C 294.570312 238.738281 294.585938 238.738281 294.597656 238.746094 M 294.511719 238.710938 C 294.496094 238.703125 294.484375 238.695312 294.46875 238.6875 C 294.484375 238.695312 294.496094 238.703125 294.511719 238.710938 M 294.433594 238.671875 C 294.390625 238.65625 294.355469 238.636719 294.3125 238.617188 C 294.355469 238.636719 294.394531 238.65625 294.433594 238.671875 M 294.3125 238.617188 C 294.292969 238.605469 294.273438 238.601562 294.246094 238.589844 C 294.273438 238.601562 294.292969 238.605469 294.3125 238.617188 M 294.234375 238.582031 C 292.121094 237.632812 289.996094 236.714844 287.863281 235.832031 C 289.996094 236.714844 292.121094 237.632812 294.234375 238.582031 M 287.847656 235.824219 C 287.828125 235.816406 287.8125 235.8125 287.792969 235.804688 C 287.8125 235.8125 287.828125 235.816406 287.847656 235.824219 M 287.753906 235.785156 C 287.738281 235.785156 287.726562 235.777344 287.710938 235.769531 C 287.726562 235.777344 287.738281 235.785156 287.753906 235.785156 " fill-opacity="1" fill-rule="nonzero"/><path fill="#ee2a22" d="M 88.578125 294.96875 C 89.746094 286.550781 87.558594 278.164062 85.390625 270.265625 C 83.867188 264.734375 82.457031 259.015625 78.664062 254.703125 C 76.71875 252.503906 73.984375 250.734375 70.664062 249.847656 C 70.703125 249.828125 70.738281 249.808594 70.773438 249.789062 C 70.777344 249.785156 70.785156 249.78125 70.789062 249.777344 C 70.8125 249.765625 70.835938 249.753906 70.855469 249.738281 C 70.875 249.730469 70.894531 249.71875 70.910156 249.710938 C 70.910156 249.710938 70.910156 249.710938 70.910156 249.707031 C 78.378906 245.414062 86.019531 241.542969 93.804688 238.097656 C 93.832031 238.085938 93.855469 238.074219 93.875 238.0625 C 93.878906 238.0625 93.882812 238.0625 93.886719 238.058594 C 93.929688 238.042969 93.96875 238.023438 94.011719 238.003906 C 94.019531 238 94.023438 238 94.03125 237.996094 C 94.050781 237.988281 94.074219 237.976562 94.09375 237.96875 C 94.105469 237.964844 94.113281 237.960938 94.125 237.953125 C 94.15625 237.941406 94.1875 237.925781 94.21875 237.914062 C 94.234375 237.90625 94.246094 237.898438 94.261719 237.890625 C 94.277344 237.886719 94.296875 237.878906 94.3125 237.871094 C 94.339844 237.863281 94.367188 237.847656 94.394531 237.835938 C 94.40625 237.832031 94.421875 237.824219 94.4375 237.816406 C 94.457031 237.808594 94.476562 237.800781 94.492188 237.792969 C 94.507812 237.785156 94.519531 237.78125 94.535156 237.777344 C 94.5625 237.761719 94.59375 237.75 94.621094 237.738281 C 94.632812 237.730469 94.644531 237.726562 94.65625 237.722656 C 94.683594 237.707031 94.707031 237.699219 94.734375 237.6875 C 94.742188 237.683594 94.75 237.679688 94.753906 237.675781 C 94.785156 237.664062 94.820312 237.648438 94.851562 237.636719 C 94.863281 237.632812 94.867188 237.628906 94.875 237.625 C 94.949219 237.59375 95.011719 237.5625 95.085938 237.535156 C 95.085938 237.535156 95.09375 237.53125 95.097656 237.527344 C 96.386719 236.964844 97.679688 236.414062 98.976562 235.878906 C 99.050781 235.84375 99.121094 235.816406 99.195312 235.785156 C 99.203125 235.785156 99.207031 235.785156 99.214844 235.78125 C 99.25 235.761719 99.28125 235.75 99.320312 235.734375 C 97.058594 239.078125 88.351562 253.394531 86.757812 257.390625 C 86.714844 257.484375 86.675781 257.570312 86.640625 257.65625 C 86.835938 258.03125 87.027344 258.410156 87.222656 258.78125 C 87.382812 259.09375 87.542969 259.398438 87.707031 259.710938 C 87.734375 259.773438 87.769531 259.835938 87.800781 259.894531 C 92.269531 268.507812 96.742188 277.113281 101.21875 285.71875 C 101.496094 286.253906 101.773438 286.789062 102.054688 287.316406 C 99.242188 288.769531 96.453125 290.292969 93.695312 291.894531 C 93.6875 291.902344 93.671875 291.90625 93.664062 291.914062 C 93.660156 291.914062 93.652344 291.917969 93.648438 291.921875 C 91.949219 292.910156 90.257812 293.925781 88.578125 294.96875 " fill-opacity="1" fill-rule="nonzero"/><path fill="#bb2f24" d="M 93.648438 291.921875 C 93.652344 291.917969 93.660156 291.914062 93.664062 291.914062 C 93.660156 291.914062 93.652344 291.917969 93.648438 291.921875 M 93.695312 291.894531 C 96.453125 290.292969 99.242188 288.769531 102.054688 287.316406 C 99.242188 288.769531 96.453125 290.292969 93.695312 291.894531 M 102.054688 287.316406 C 101.773438 286.789062 101.496094 286.253906 101.21875 285.71875 C 101.496094 286.253906 101.773438 286.789062 102.054688 287.316406 M 101.21875 285.71875 C 96.742188 277.113281 92.269531 268.507812 87.800781 259.894531 C 92.269531 268.507812 96.742188 277.113281 101.21875 285.71875 M 87.707031 259.710938 C 87.542969 259.398438 87.382812 259.09375 87.222656 258.78125 C 87.027344 258.410156 86.835938 258.03125 86.640625 257.65625 C 86.996094 258.339844 87.351562 259.023438 87.707031 259.710938 M 86.640625 257.65625 C 86.675781 257.570312 86.714844 257.484375 86.757812 257.390625 C 86.714844 257.484375 86.675781 257.570312 86.640625 257.65625 M 70.773438 249.789062 C 70.777344 249.785156 70.785156 249.78125 70.789062 249.777344 C 70.785156 249.78125 70.777344 249.785156 70.773438 249.789062 M 70.855469 249.738281 C 70.875 249.730469 70.894531 249.71875 70.910156 249.710938 C 70.894531 249.71875 70.875 249.730469 70.855469 249.738281 M 70.910156 249.707031 C 78.378906 245.414062 86.019531 241.542969 93.804688 238.097656 C 86.019531 241.542969 78.378906 245.414062 70.910156 249.707031 M 93.804688 238.097656 C 93.828125 238.085938 93.855469 238.074219 93.875 238.0625 C 93.855469 238.074219 93.832031 238.085938 93.804688 238.097656 M 93.886719 238.058594 C 93.925781 238.042969 93.96875 238.023438 94.011719 238.003906 C 93.96875 238.023438 93.929688 238.042969 93.886719 238.058594 M 94.03125 237.996094 C 94.050781 237.988281 94.074219 237.976562 94.09375 237.96875 C 94.074219 237.976562 94.050781 237.988281 94.03125 237.996094 M 94.125 237.953125 C 94.15625 237.941406 94.1875 237.925781 94.21875 237.914062 C 94.1875 237.925781 94.15625 237.941406 94.125 237.953125 M 94.261719 237.890625 C 94.28125 237.886719 94.296875 237.878906 94.3125 237.871094 C 94.296875 237.878906 94.277344 237.886719 94.261719 237.890625 M 94.394531 237.835938 C 94.40625 237.832031 94.421875 237.824219 94.4375 237.816406 C 94.421875 237.824219 94.40625 237.832031 94.394531 237.835938 M 94.492188 237.792969 C 94.507812 237.785156 94.519531 237.78125 94.535156 237.777344 C 94.519531 237.78125 94.507812 237.785156 94.492188 237.792969 M 94.621094 237.738281 C 94.632812 237.730469 94.644531 237.726562 94.65625 237.722656 C 94.644531 237.726562 94.632812 237.730469 94.621094 237.738281 M 94.734375 237.6875 C 94.738281 237.683594 94.75 237.679688 94.753906 237.675781 C 94.75 237.679688 94.742188 237.683594 94.734375 237.6875 M 94.851562 237.636719 C 94.859375 237.632812 94.867188 237.628906 94.875 237.625 C 94.867188 237.628906 94.863281 237.632812 94.851562 237.636719 M 95.085938 237.535156 C 95.085938 237.535156 95.09375 237.53125 95.097656 237.527344 C 95.09375 237.53125 95.085938 237.535156 95.085938 237.535156 M 99.207031 235.898438 C 99.25 235.839844 99.28125 235.785156 99.320312 235.734375 C 99.28125 235.785156 99.25 235.839844 99.207031 235.898438 M 99.195312 235.785156 C 99.203125 235.785156 99.207031 235.785156 99.214844 235.78125 C 99.207031 235.785156 99.203125 235.785156 99.195312 235.785156 " fill-opacity="1" fill-rule="nonzero"/><path fill="#f5f6f4" d="M 110.664062 300.699219 C 110.417969 300.210938 110.179688 299.71875 109.9375 299.230469 C 110.179688 299.71875 110.417969 300.210938 110.664062 300.699219 C 113.738281 299.128906 116.84375 297.65625 119.984375 296.273438 C 122.414062 295.171875 124.863281 294.132812 127.332031 293.15625 C 124.863281 294.132812 122.414062 295.171875 119.984375 296.273438 C 116.84375 297.65625 113.738281 299.128906 110.664062 300.699219 M 113.003906 247.320312 C 113.984375 246.953125 114.964844 246.59375 115.949219 246.242188 C 114.964844 246.59375 113.984375 246.953125 113.003906 247.320312 " fill-opacity="1" fill-rule="nonzero"/><path fill="#eed808" d="M 119.734375 244.925781 C 121.089844 244.46875 122.445312 244.023438 123.804688 243.589844 C 122.445312 244.023438 121.089844 244.46875 119.734375 244.925781 M 135.71875 240.164062 C 135.765625 240.152344 135.820312 240.136719 135.871094 240.128906 C 135.820312 240.136719 135.765625 240.152344 135.71875 240.164062 " fill-opacity="1" fill-rule="nonzero"/><path fill="#e9e622" d="M 123.804688 243.589844 C 127.75 242.339844 131.722656 241.199219 135.71875 240.164062 C 131.722656 241.199219 127.75 242.339844 123.804688 243.589844 " fill-opacity="1" fill-rule="nonzero"/><path fill="#c5741d" d="M 115.949219 246.242188 C 117.210938 245.792969 118.46875 245.355469 119.734375 244.925781 C 118.472656 245.355469 117.207031 245.792969 115.949219 246.242188 " fill-opacity="1" fill-rule="nonzero"/><path fill="#ef3320" d="M 110.664062 300.699219 C 110.417969 300.210938 110.179688 299.71875 109.9375 299.230469 C 108.066406 295.433594 106.179688 291.636719 104.28125 287.851562 C 104.0625 287.40625 103.84375 286.964844 103.617188 286.523438 C 98.816406 276.933594 93.941406 267.390625 88.957031 257.894531 C 96.804688 253.898438 104.832031 250.367188 113.003906 247.320312 C 113.984375 246.953125 114.964844 246.59375 115.949219 246.242188 C 117.207031 245.792969 118.472656 245.355469 119.734375 244.925781 C 121.089844 244.46875 122.445312 244.023438 123.804688 243.589844 C 127.75 242.339844 131.722656 241.199219 135.71875 240.164062 C 135.765625 240.152344 135.820312 240.136719 135.871094 240.128906 C 139.449219 239.203125 143.050781 238.371094 146.664062 237.621094 C 142.445312 238.714844 137.992188 240.023438 133.59375 241.5625 C 115.433594 247.324219 98.230469 257.066406 97.945312 259.046875 C 96.984375 263.066406 111.464844 294.691406 113.691406 295.605469 C 113.878906 295.671875 114.152344 295.707031 114.507812 295.707031 C 116.5625 295.707031 121.320312 294.632812 127.332031 293.15625 C 124.863281 294.132812 122.414062 295.171875 119.984375 296.273438 C 116.84375 297.65625 113.738281 299.128906 110.664062 300.699219 " fill-opacity="1" fill-rule="nonzero"/><path fill="#c72e24" d="M 111.21875 301.8125 C 103.171875 286.949219 95.015625 272.140625 86.757812 257.390625 C 113.164062 243.8125 141.597656 235.660156 170.425781 232.910156 C 170.515625 232.910156 159.710938 234.25 146.664062 237.621094 C 143.050781 238.371094 139.449219 239.203125 135.871094 240.128906 C 135.820312 240.136719 135.765625 240.152344 135.71875 240.164062 C 131.722656 241.199219 127.75 242.339844 123.804688 243.589844 C 122.445312 244.023438 121.089844 244.46875 119.734375 244.925781 C 118.46875 245.355469 117.210938 245.792969 115.949219 246.242188 C 114.964844 246.59375 113.984375 246.953125 113.003906 247.320312 C 104.832031 250.367188 96.804688 253.898438 88.957031 257.894531 C 93.941406 267.390625 98.816406 276.933594 103.617188 286.523438 C 103.84375 286.964844 104.0625 287.40625 104.28125 287.851562 C 106.179688 291.636719 108.066406 295.433594 109.9375 299.230469 C 110.179688 299.71875 110.417969 300.210938 110.664062 300.699219 C 113.738281 299.128906 116.84375 297.65625 119.984375 296.273438 C 122.414062 295.171875 124.863281 294.132812 127.332031 293.15625 C 133.015625 291.757812 139.824219 290 146.53125 288.445312 C 134.433594 291.625 122.585938 296.078125 111.21875 301.8125 " fill-opacity="1" fill-rule="nonzero"/><path fill="#ef3320" d="M 275.84375 300.472656 C 272.914062 298.992188 269.953125 297.589844 266.960938 296.273438 C 264.375 295.101562 261.769531 294 259.144531 292.96875 C 265.128906 294.421875 269.867188 295.472656 271.929688 295.472656 C 272.292969 295.472656 272.570312 295.441406 272.761719 295.371094 C 274.984375 294.449219 289.371094 262.785156 288.402344 258.769531 C 288.109375 256.789062 270.882812 247.097656 252.707031 241.394531 C 248.308594 239.863281 243.847656 238.570312 239.625 237.488281 C 243.460938 238.269531 247.277344 239.148438 251.078125 240.128906 C 267.183594 244.273438 282.917969 250.21875 297.992188 257.894531 C 293.003906 267.390625 288.128906 276.933594 283.328125 286.523438 C 283.105469 286.964844 282.886719 287.40625 282.664062 287.851562 C 282.648438 287.878906 282.636719 287.910156 282.621094 287.9375 C 280.355469 292.113281 278.097656 296.289062 275.84375 300.472656 " fill-opacity="1" fill-rule="nonzero"/><path fill="#c72e24" d="M 275.253906 301.570312 C 263.867188 295.875 252.015625 291.453125 239.910156 288.3125 C 246.628906 289.847656 253.449219 291.589844 259.144531 292.96875 C 261.769531 294 264.375 295.101562 266.960938 296.273438 C 269.953125 297.589844 272.914062 298.992188 275.84375 300.472656 C 275.648438 300.839844 275.449219 301.207031 275.253906 301.570312 M 282.621094 287.9375 C 282.636719 287.910156 282.648438 287.878906 282.664062 287.851562 C 282.886719 287.40625 283.105469 286.964844 283.328125 286.523438 C 288.128906 276.933594 293.003906 267.390625 297.992188 257.894531 C 282.917969 250.21875 267.183594 244.273438 251.078125 240.128906 C 247.277344 239.148438 243.460938 238.269531 239.625 237.488281 C 226.570312 234.148438 215.769531 232.847656 215.855469 232.839844 C 244.691406 235.511719 273.144531 243.582031 299.582031 257.074219 C 293.878906 267.335938 288.226562 277.621094 282.621094 287.9375 " fill-opacity="1" fill-rule="nonzero"/><path fill="#f14e23" d="M 264.792969 289.539062 C 263.308594 289.539062 254.625 286.582031 242.25 283.628906 C 229.875 280.675781 213.804688 277.71875 197.546875 277.71875 C 196.234375 277.71875 194.921875 277.738281 193.609375 277.78125 C 192.058594 277.722656 190.503906 277.699219 188.960938 277.699219 C 173.015625 277.699219 157.492188 280.515625 145.78125 283.332031 C 134.074219 286.152344 126.179688 288.96875 125.5 288.96875 C 125.480469 288.96875 125.464844 288.964844 125.457031 288.957031 C 117.945312 286.296875 110.164062 261.078125 114.433594 256.71875 C 115.371094 254.640625 150.894531 241.332031 188.183594 241.332031 C 190.929688 241.332031 193.675781 241.40625 196.429688 241.558594 C 196.898438 241.554688 197.371094 241.550781 197.839844 241.550781 C 237.578125 241.550781 276.140625 258.179688 276.808594 259.183594 C 280.316406 261.417969 271.398438 288.792969 264.863281 289.535156 C 264.839844 289.535156 264.816406 289.539062 264.792969 289.539062 " fill-opacity="1" fill-rule="nonzero"/><path fill="#f14e23" d="M 60.910156 314.542969 C 59.875 314.542969 69.5625 278.085938 70.480469 276.917969 C 70.511719 276.476562 68.976562 276.300781 66.539062 276.300781 C 57.464844 276.300781 35.851562 278.777344 35.644531 279.523438 C 34.882812 277.679688 62.925781 254.90625 66.820312 254.90625 C 66.898438 254.90625 66.957031 254.910156 67.015625 254.929688 C 69.707031 254.964844 78.226562 261.613281 82.105469 275.125 C 84.046875 282.132812 84.117188 295.347656 83.308594 296.359375 C 82.101562 296.882812 60.632812 314.050781 60.910156 314.542969 " fill-opacity="1" fill-rule="nonzero"/><path fill="#f14e23" d="M 325 313.625 C 324.996094 313.625 324.996094 313.625 324.996094 313.625 C 325.277344 313.132812 303.714844 296.128906 302.507812 295.617188 C 301.691406 294.609375 301.679688 281.398438 303.574219 274.375 C 307.367188 260.839844 315.839844 254.132812 318.523438 254.078125 C 318.582031 254.0625 318.648438 254.054688 318.722656 254.054688 C 322.640625 254.054688 350.773438 276.585938 350.023438 278.433594 C 349.820312 277.703125 328.8125 275.4375 319.527344 275.4375 C 316.867188 275.4375 315.167969 275.625 315.199219 276.089844 C 316.128906 277.253906 326.035156 313.628906 325 313.625 " fill-opacity="1" fill-rule="nonzero"/></svg>